<svg width="50" height="50" viewBox="0 0 50 50" fill="none" xmlns="http://www.w3.org/2000/svg">
<path d="M8.33342 8.33366H14.5834L18.7501 4.16699H31.2501L35.4167 8.33366H41.6668C42.7718 8.33366 43.8316 8.77265 44.613 9.55405C45.3944 10.3354 45.8334 11.3953 45.8334 12.5003V37.5003C45.8334 38.6054 45.3944 39.6652 44.613 40.4466C43.8316 41.228 42.7718 41.667 41.6668 41.667H8.33342C7.22835 41.667 6.16854 41.228 5.38714 40.4466C4.60573 39.6652 4.16675 38.6054 4.16675 37.5003V12.5003C4.16675 11.3953 4.60573 10.3354 5.38714 9.55405C6.16854 8.77265 7.22835 8.33366 8.33342 8.33366ZM25.0001 14.5837C22.2374 14.5837 19.5879 15.6811 17.6344 17.6346C15.6809 19.5881 14.5834 22.2377 14.5834 25.0003C14.5834 27.763 15.6809 30.4125 17.6344 32.366C19.5879 34.3195 22.2374 35.417 25.0001 35.417C27.7628 35.417 30.4123 34.3195 32.3658 32.366C34.3193 30.4125 35.4167 27.763 35.4167 25.0003C35.4167 22.2377 34.3193 19.5881 32.3658 17.6346C30.4123 15.6811 27.7628 14.5837 25.0001 14.5837ZM25.0001 18.7503C26.6577 18.7503 28.2474 19.4088 29.4195 20.5809C30.5916 21.753 31.2501 23.3427 31.2501 25.0003C31.2501 26.6579 30.5916 28.2476 29.4195 29.4197C28.2474 30.5918 26.6577 31.2503 25.0001 31.2503C23.3425 31.2503 21.7528 30.5918 20.5807 29.4197C19.4086 28.2476 18.7501 26.6579 18.7501 25.0003C18.7501 23.3427 19.4086 21.753 20.5807 20.5809C21.7528 19.4088 23.3425 18.7503 25.0001 18.7503Z" fill="#2E6669"/>
</svg>
