<svg width="162" height="161" viewBox="0 0 162 161" fill="none" xmlns="http://www.w3.org/2000/svg">
<path fill-rule="evenodd" clip-rule="evenodd" d="M93.8579 42.96H90.1421L88.0136 51.4674L85.8785 52.1274C84.6343 52.5108 83.4289 53.0102 82.2782 53.619L80.3015 54.6651L72.7775 50.1507L70.1507 52.7808L74.6651 60.3048L73.619 62.2782C73.009 63.4288 72.5085 64.6342 72.1241 65.8785L71.4674 68.0136L62.96 70.1421V73.8579L71.4674 75.9864L72.1274 78.1215C72.508 79.3711 73.0052 80.5712 73.619 81.7218L74.6651 83.6985L70.1507 91.2225L72.7808 93.8493L80.3048 89.3349L82.2782 90.381C83.4288 90.9926 84.6289 91.4909 85.8785 91.8759L88.0136 92.5326L90.1421 101.04H93.8579L95.9864 92.5326L98.1215 91.8726C99.3657 91.4892 100.571 90.9898 101.722 90.381L103.698 89.3349L111.223 93.8493L113.849 91.2192L109.335 83.6952L110.381 81.7218C110.993 80.5712 111.491 79.3711 111.876 78.1215L112.533 75.9864L121.04 73.8579V70.1421L112.533 68.0136L111.873 65.8785C111.489 64.6343 110.99 63.4289 110.381 62.2782L109.335 60.3015L113.849 52.7775L111.219 50.1507L103.695 54.6651L101.722 53.619C100.571 53.009 99.3658 52.5085 98.1215 52.1241L95.9864 51.4674L93.8579 42.96ZM103.576 50.121L109.625 46.491C110.256 46.1127 110.995 45.9559 111.725 46.0456C112.455 46.1353 113.134 46.4663 113.655 46.986L117.014 50.3454C117.534 50.8658 117.865 51.5449 117.954 52.2749C118.044 53.0049 117.887 53.744 117.509 54.3747L113.879 60.4236C114.605 61.7876 115.199 63.2176 115.661 64.7136L122.502 66.4263C123.216 66.6051 123.849 67.0172 124.302 67.5971C124.754 68.1771 125 68.8916 125 69.6273V74.3727C125 75.1084 124.754 75.8229 124.302 76.4029C123.849 76.9828 123.216 77.3949 122.502 77.5737L115.661 79.2864C115.199 80.7824 114.605 82.2124 113.879 83.5764L117.509 89.6253C117.887 90.256 118.044 90.9951 117.954 91.7251C117.865 92.4551 117.534 93.1342 117.014 93.6546L113.655 97.014C113.134 97.5337 112.455 97.8647 111.725 97.9544C110.995 98.0441 110.256 97.8873 109.625 97.509L103.576 93.879C102.212 94.605 100.782 95.199 99.2864 95.661L97.5737 102.502C97.3949 103.216 96.9828 103.849 96.4029 104.302C95.8229 104.754 95.1084 105 94.3727 105H89.6273C88.8916 105 88.1771 104.754 87.5971 104.302C87.0172 103.849 86.6051 103.216 86.4263 102.502L84.7136 95.661C83.2309 95.2028 81.7946 94.6062 80.4236 93.879L74.3747 97.509C73.744 97.8873 73.0049 98.0441 72.2749 97.9544C71.5449 97.8647 70.8658 97.5337 70.3454 97.014L66.986 93.6546C66.4663 93.1342 66.1353 92.4551 66.0456 91.7251C65.9559 90.9951 66.1127 90.256 66.491 89.6253L70.121 83.5764C69.3938 82.2054 68.7972 80.7691 68.339 79.2864L61.4981 77.5737C60.785 77.3951 60.152 76.9835 59.6995 76.4042C59.2469 75.8249 59.0008 75.1111 59 74.376V69.6306C59 68.8949 59.2459 68.1804 59.6985 67.6004C60.1511 67.0205 60.7845 66.6084 61.4981 66.4296L68.339 64.7169C68.801 63.2209 69.395 61.7909 70.121 60.4269L66.491 54.378C66.1127 53.7473 65.9559 53.0082 66.0456 52.2782C66.1353 51.5482 66.4663 50.8691 66.986 50.3487L70.3454 46.986C70.8658 46.4663 71.5449 46.1353 72.2749 46.0456C73.0049 45.9559 73.744 46.1127 74.3747 46.491L80.4236 50.121C81.7876 49.395 83.2176 48.801 84.7136 48.339L86.4263 41.4981C86.6049 40.785 87.0165 40.152 87.5958 39.6995C88.1751 39.2469 88.8889 39.0008 89.624 39H94.3694C95.1051 39 95.8196 39.2459 96.3996 39.6985C96.9795 40.1511 97.3916 40.7845 97.5704 41.4981L99.2831 48.339C100.779 48.801 102.209 49.395 103.573 50.121H103.576ZM92 81.24C94.4506 81.24 96.8008 80.2665 98.5337 78.5337C100.267 76.8008 101.24 74.4506 101.24 72C101.24 69.5494 100.267 67.1992 98.5337 65.4663C96.8008 63.7335 94.4506 62.76 92 62.76C89.5494 62.76 87.1992 63.7335 85.4663 65.4663C83.7335 67.1992 82.76 69.5494 82.76 72C82.76 74.4506 83.7335 76.8008 85.4663 78.5337C87.1992 80.2665 89.5494 81.24 92 81.24ZM92 85.2C88.4991 85.2 85.1417 83.8093 82.6662 81.3338C80.1907 78.8583 78.8 75.5009 78.8 72C78.8 68.4991 80.1907 65.1417 82.6662 62.6662C85.1417 60.1907 88.4991 58.8 92 58.8C95.5009 58.8 98.8583 60.1907 101.334 62.6662C103.809 65.1417 105.2 68.4991 105.2 72C105.2 75.5009 103.809 78.8583 101.334 81.3338C98.8583 83.8093 95.5009 85.2 92 85.2Z" fill="#2A9D8F"/>
<path d="M67.0885 141.752C52.5589 137.036 40.5801 128.41 31.1523 115.875C21.7244 103.341 17.0105 88.942 17.0105 72.6794C17.0105 68.4381 17.3607 64.2401 18.0611 60.0853C18.7614 55.9305 19.8793 51.8675 21.4147 47.8964L3.87889 58.043L0 51.0733L31.4351 32.8386L49.6174 64.3238L42.6273 68.53L30.4735 47.4588C28.6795 51.4191 27.3596 55.5388 26.5138 59.8178C25.668 64.0969 25.2451 68.4354 25.2451 72.8333C25.2451 87.3886 29.5657 100.32 38.207 111.629C46.8483 122.937 57.8735 130.587 71.2826 134.58L67.0885 141.752ZM115.542 40.2054V32.1011H139.583C133.49 24.4074 126.066 18.4859 117.312 14.3365C108.558 10.1871 99.3156 8.1097 89.5861 8.1043C81.0417 8.1043 73.0523 9.64412 65.6178 12.7238C58.194 15.798 51.6161 20.0527 45.884 25.488L41.6899 18.1617C48.117 12.4995 55.3792 8.05837 63.4763 4.83827C71.5789 1.61275 80.231 0 89.4325 0C99.9702 0 109.931 2.12333 119.316 6.36998C128.701 10.6166 136.871 16.7273 143.826 24.7019V3.74418H151.907V40.2135L115.542 40.2054ZM116.657 161L85.2223 142.603L103.405 111.28L110.354 115.332L97.7479 136.906C113.743 134.815 127.103 127.691 137.83 115.535C148.556 103.378 153.922 89.1284 153.927 72.7847C153.927 69.9482 153.739 67.1603 153.361 64.4211C152.984 61.6872 152.4 59.0209 151.608 56.4221H160.044C160.702 59.0155 161.192 61.6575 161.515 64.3481C161.838 67.0333 162 69.7942 162 72.6307C162 90.2441 156.478 105.723 145.434 119.068C134.384 132.413 120.326 140.701 103.259 143.932L120.698 154.03L116.657 161Z" fill="#2A9D8F"/>
</svg>
