<svg width="162" height="121" viewBox="0 0 162 121" fill="none" xmlns="http://www.w3.org/2000/svg">
<path d="M99.5098 74.207C104.309 76.0977 108.686 78.6185 112.641 81.7695C116.596 84.9206 119.971 88.5443 122.766 92.6406C125.561 96.737 127.749 101.175 129.331 105.954C130.913 110.733 131.678 115.748 131.625 121H121.5C121.5 115.433 120.445 110.208 118.336 105.324C116.227 100.439 113.326 96.1855 109.635 92.5618C105.943 88.9381 101.646 86.0497 96.7412 83.8965C91.8369 81.7433 86.5898 80.6667 81 80.6667C75.4102 80.6667 70.1631 81.717 65.2588 83.8177C60.3545 85.9184 56.083 88.8069 52.4443 92.4831C48.8057 96.1593 45.9053 100.439 43.7432 105.324C41.5811 110.208 40.5 115.433 40.5 121H30.375C30.375 115.801 31.1396 110.812 32.6689 106.033C34.1982 101.253 36.3604 96.8158 39.1553 92.7194C41.9502 88.623 45.3252 84.9993 49.2803 81.8483C53.2354 78.6973 57.6387 76.1502 62.4902 74.207C58.7461 71.3711 55.8457 67.8787 53.7891 63.7298C51.7324 59.5809 50.6777 55.1432 50.625 50.4167C50.625 46.2678 51.416 42.3553 52.998 38.679C54.5801 35.0028 56.7422 31.7993 59.4844 29.0684C62.2266 26.3375 65.4434 24.158 69.1348 22.5299C72.8262 20.9019 76.7813 20.1141 81 20.1667C85.166 20.1667 89.0947 20.9544 92.7861 22.5299C96.4775 24.1055 99.6943 26.2587 102.437 28.9896C105.179 31.7205 107.367 34.9503 109.002 38.679C110.637 42.4078 111.428 46.3203 111.375 50.4167C111.375 55.1432 110.347 59.5809 108.29 63.7298C106.233 67.8787 103.307 71.3711 99.5098 74.207ZM60.75 50.4167C60.75 53.2001 61.2773 55.7997 62.332 58.2155C63.3867 60.6313 64.8369 62.7845 66.6826 64.6751C68.5283 66.5658 70.6641 68.01 73.0898 69.0078C75.5156 70.0056 78.1523 70.5308 81 70.5833C83.7949 70.5833 86.4053 70.0582 88.8311 69.0078C91.2568 67.9575 93.4189 66.5132 95.3174 64.6751C97.2158 62.837 98.666 60.7101 99.668 58.2943C100.67 55.8785 101.197 53.2526 101.25 50.4167C101.25 47.6332 100.723 45.0336 99.668 42.6178C98.6133 40.202 97.1631 38.0488 95.3174 36.1582C93.4717 34.2676 91.3359 32.8233 88.9102 31.8255C86.4844 30.8277 83.8477 30.3025 81 30.25C78.2051 30.25 75.5947 30.7752 73.1689 31.8255C70.7432 32.8759 68.5811 34.3201 66.6826 36.1582C64.7842 37.9963 63.334 40.1233 62.332 42.5391C61.3301 44.9549 60.8027 47.5807 60.75 50.4167ZM162 0V100.833H140.88C140.3 99.1003 139.641 97.3934 138.902 95.7129C138.164 94.0323 137.347 92.378 136.45 90.75H151.875V10.0833H10.125V90.75H25.5498C24.6533 92.378 23.8359 94.0323 23.0977 95.7129C22.3594 97.3934 21.7002 99.1003 21.1201 100.833H0V0H162Z" fill="#2A9D8F"/>
</svg>
