<svg width="297" height="370" viewBox="0 0 297 370" fill="none" xmlns="http://www.w3.org/2000/svg">
<path d="M171.962 223.5C176.762 209.9 191.962 190.833 198.962 183C207.629 189.333 225.163 205.7 231.963 216.5C240.463 230 247.463 251.5 247.963 267C248.463 282.5 240.463 302.5 236.463 308.5C233.263 313.3 227.463 319.833 224.963 322.5L236 345L227 351L224.963 345.5C220.796 336.167 211.863 315.7 209.463 308.5C206.463 299.5 203.463 285.5 199.963 257C199.963 258.667 198.962 264.4 198.962 282C198.962 292.5 201.463 311 206.963 325C199.796 321.5 190.263 316.1 185.463 312.5C179.463 308 167.463 297 163.464 277.5C158.889 255.194 165.962 240.5 171.962 223.5Z" fill="#68A78C"/>
<circle cx="161.5" cy="18.5" r="18.5" fill="#68A78C"/>
<circle cx="209" cy="55" r="16" fill="#518FE7" fill-opacity="0.996078"/>
<circle cx="279.5" cy="69.5" r="17.5" fill="#E76F51"/>
<path d="M61.0086 67.031C75.3729 63.1821 90.1382 71.7067 93.9871 86.071C97.8358 100.435 89.3112 115.2 74.9471 119.049C60.5828 122.897 45.8184 114.373 41.9695 100.008C38.1208 85.6444 46.6446 70.8799 61.0086 67.031ZM88.535 87.5222C85.4985 76.1904 73.8502 69.4653 62.5184 72.5017C51.1864 75.538 44.4615 87.1863 47.4979 98.5183C50.5343 109.85 62.1825 116.575 73.5145 113.539C84.8463 110.502 91.5713 98.854 88.535 87.5222Z" fill="#E76F51"/>
<rect x="157.79" y="36.3091" width="9" height="118.069" transform="rotate(-2.37682 157.79 36.3091)" fill="#68A78C"/>
<rect x="264.991" y="78.0829" width="9" height="115.842" transform="rotate(46.5794 264.991 78.0829)" fill="#68A78C"/>
<rect x="153.532" y="158.841" width="9" height="82.0225" transform="rotate(130.107 153.532 158.841)" fill="#E76F51"/>
<rect x="192.331" y="115.16" width="9" height="47.201" transform="rotate(-160.534 192.331 115.16)" fill="#518FE7" fill-opacity="0.996078"/>
<path d="M168 153C180.702 153 191 163.297 191 176C191 188.703 180.702 199 168 199C155.297 199 145 188.703 145 176C145 163.297 155.297 153 168 153ZM167.5 160C158.387 160 151 167.387 151 176.5C151 185.613 158.387 193 167.5 193C176.613 193 184 185.613 184 176.5C184 167.387 176.613 160 167.5 160Z" fill="#68A78C"/>
<path d="M167.672 104.002C235.672 104.502 258.186 161.969 265.735 196.002C272.499 226.5 271.172 268.77 268.5 298C265.663 329.024 258.96 348.145 257.672 360.502C213.672 368.502 133.675 376.002 74.1733 359.002C13.5362 341.678 -11.8243 283.502 5.17529 246.002C20.7187 211.714 39.6723 196.002 93.1724 196.002C95.339 165.169 113.272 103.602 167.672 104.002ZM169.441 121.002C123.417 120.664 109.441 161.002 114.941 217.002C70.941 208.502 38.9687 218.962 25.8188 247.917C5.87694 291.828 31.1423 329.979 82.4429 344.608C132.783 358.964 202.213 351.364 239.438 344.608C240.527 334.173 246.198 318.027 248.598 291.828C250.859 267.145 251.982 231.449 246.259 205.694C239.873 176.955 226.97 121.424 169.441 121.002Z" fill="#2A9D8F"/>
</svg>
