<svg width="451" height="429" viewBox="0 0 451 429" fill="none" xmlns="http://www.w3.org/2000/svg">
<path d="M271.962 282.5C276.762 268.9 291.963 249.834 298.963 242C307.629 248.334 325.163 264.7 331.963 275.5C340.463 289 347.463 310.5 347.963 326C348.463 341.5 340.463 361.5 336.463 367.5C333.263 372.3 327.463 378.834 324.963 381.5L336 404L327 410L324.963 404.5C320.796 395.167 311.863 374.7 309.463 367.5C306.463 358.5 303.463 344.5 299.963 316C299.963 317.667 298.963 323.4 298.963 341C298.963 351.5 301.463 370 306.963 384C299.796 380.5 290.263 375.1 285.463 371.5C279.463 367 267.463 356 263.464 336.5C258.889 314.194 265.962 299.5 271.962 282.5Z" fill="#68A78C"/>
<circle cx="259.5" cy="18.5" r="18.5" fill="#68A78C"/>
<circle cx="323" cy="73" r="16" fill="#518FE7" fill-opacity="0.996078"/>
<path d="M19.9632 2.92416C34.3275 -0.924737 49.0928 7.59992 52.9417 21.9642C56.7904 36.3283 48.2658 51.0928 33.9017 54.9417C19.5374 58.7906 4.77305 50.266 0.924151 35.9017C-2.92458 21.5376 5.59918 6.77316 19.9632 2.92416ZM47.4896 23.4154C44.4531 12.0836 32.8048 5.35854 21.473 8.39486C10.141 11.4312 3.41615 23.0795 6.45247 34.4115C9.48886 45.7434 21.1371 52.4684 32.4691 49.432C43.8009 46.3955 50.5259 34.7472 47.4896 23.4154Z" fill="#E76F51"/>
<rect x="254.642" y="19.4783" width="9" height="193.965" transform="rotate(-2.37682 254.642 19.4783)" fill="#68A78C"/>
<rect x="420.317" y="84.7268" width="9" height="192.013" transform="rotate(46.5794 420.317 84.7268)" fill="#68A78C"/>
<rect x="253.532" y="217.841" width="9" height="270.488" transform="rotate(130.107 253.532 217.841)" fill="#E76F51"/>
<rect x="292.331" y="174.161" width="9" height="91.4193" transform="rotate(-160.534 292.331 174.161)" fill="#518FE7" fill-opacity="0.996078"/>
<path d="M268 212C280.702 212 291 222.298 291 235C291 247.703 280.702 258 268 258C255.297 258 245 247.703 245 235C245 222.298 255.297 212 268 212ZM267.5 219C258.387 219 251 226.388 251 235.5C251 244.613 258.387 252 267.5 252C276.613 252 284 244.613 284 235.5C284 226.388 276.613 219 267.5 219Z" fill="#68A78C"/>
<path d="M267.672 163.002C335.672 163.503 358.186 220.969 365.735 255.002C372.5 285.501 371.172 327.771 368.5 357.001C365.663 388.025 358.96 407.145 357.672 419.502C313.672 427.502 233.675 435.002 174.173 418.002C113.536 400.678 88.1758 342.502 105.175 305.002C120.719 270.715 139.672 255.002 193.172 255.002C195.339 224.169 213.272 162.602 267.672 163.002ZM269.441 180.002C223.417 179.665 209.441 220.002 214.941 276.002C170.941 267.502 138.969 277.963 125.819 306.918C105.877 350.828 131.142 388.979 182.443 403.609C232.783 417.965 302.213 410.365 339.438 403.609C340.527 393.174 346.198 377.027 348.598 350.829C350.859 326.145 351.982 290.449 346.259 264.695C339.873 235.955 326.971 180.425 269.441 180.002Z" fill="#2A9D8F"/>
<circle cx="433.5" cy="77.5" r="17.5" fill="#E76F51"/>
</svg>
