<svg width="440" height="825" viewBox="0 0 440 825" fill="none" xmlns="http://www.w3.org/2000/svg">
<g clip-path="url(#clip0_1897_3228)">
<path d="M0 517.5C0 228.379 234.379 -6 523.5 -6C812.621 -6 1047 228.379 1047 517.5C1047 806.621 812.621 1041 523.5 1041C234.379 1041 0 806.621 0 517.5ZM101.268 517.5C101.268 750.693 290.307 939.732 523.5 939.732C756.693 939.732 945.732 750.693 945.732 517.5C945.732 284.307 756.693 95.2676 523.5 95.2676C290.307 95.2676 101.268 284.307 101.268 517.5Z" fill="url(#paint0_linear_1897_3228)"/>
</g>
<defs>
<linearGradient id="paint0_linear_1897_3228" x1="523.5" y1="1041" x2="523.5" y2="-6" gradientUnits="userSpaceOnUse">
<stop stop-color="#F4F7ED"/>
<stop offset="0.5" stop-color="#DDEFD7"/>
<stop offset="1" stop-color="#A6D3BC"/>
</linearGradient>
<clipPath id="clip0_1897_3228">
<rect width="1920" height="1619" fill="white" transform="translate(-1480 -794)"/>
</clipPath>
</defs>
</svg>
