<svg width="309" height="315" viewBox="0 0 309 315" fill="none" xmlns="http://www.w3.org/2000/svg">
<path d="M186.138 154.669C180.079 154.667 178.568 154.671 168.649 154.671C167.399 154.671 166.332 155.566 166.117 156.796C161.461 183.432 146.26 261.5 142.478 280.875C141.98 283.427 139.747 285.265 137.145 285.266C112.165 285.268 75.3282 285.26 57.2981 285.26C55.295 285.26 53.6761 283.636 53.6843 281.636C53.6879 280.638 53.6925 279.555 53.697 278.558C53.7051 276.564 55.3249 274.953 57.3208 274.953C75.5131 274.953 112.217 274.953 129.931 274.953C131.941 274.953 133.663 273.538 134.048 271.566C135.464 264.326 137.996 251.37 140.953 236.156C129.664 236.155 79.1279 236.15 57.2211 236.15C55.2225 236.15 53.6091 234.529 53.6172 232.532C53.6208 231.657 53.6245 230.724 53.6281 229.85C53.6363 227.857 55.2551 226.246 57.2501 226.247C79.6345 226.249 125.481 226.255 142.867 226.256C147.438 202.597 154.794 163.236 157.33 149.645C157.849 146.867 160.277 144.86 163.105 144.862C174.279 144.868 181.216 144.863 186.108 144.873L186.139 154.669L186.138 154.669Z" fill="white"/>
<path d="M225.07 167.006C226.047 160.947 227.094 155.272 228.143 150.229L228.37 149.136C221.238 150.509 214.009 151.496 206.106 152.432C205.655 152.485 205.226 152.203 205.115 151.764C203.815 146.655 202.643 139.66 201.959 135.271C201.883 134.79 202.222 134.323 202.701 134.234C212.409 132.406 220.118 130.933 229.479 129.162L229.017 126.918C227.606 120.075 225.314 108.422 226.316 103.269C227.661 96.3659 232.991 90.6778 234.005 83.7182C238.494 83.5923 250.297 81.8282 254.227 79.6557C255.182 79.1277 256.214 78.5228 257.289 78.7057C258.356 78.8868 259.133 79.7924 259.754 80.6763C262.51 84.5985 264.074 89.2225 265.333 93.8465C268.804 106.594 270.211 119.9 269.482 133.091C269.225 137.739 268.334 142.37 266.36 146.572C265.584 148.222 264.933 152.831 265.589 153.715C277.32 169.522 277.224 209.7 287.002 229.399C287.846 231.099 288.777 232.983 288.26 234.809C287.601 237.133 284.97 238.196 282.65 238.874C262.243 244.839 241.883 245.546 220.93 241.596C218.422 220.975 221.203 190.981 225.07 167.006Z" fill="white"/>
<path d="M266.223 146.859C268.293 142.582 269.22 137.845 269.482 133.091C270.21 119.9 268.804 106.594 265.333 93.8465C264.074 89.2225 262.51 84.5985 259.754 80.6763C259.132 79.7915 258.355 78.8868 257.289 78.7057C256.213 78.5228 255.181 79.1277 254.227 79.6557C250.297 81.8282 238.494 83.5923 234.004 83.7182C232.991 90.6778 227.66 96.3659 226.316 103.269C225.313 108.422 227.606 120.075 229.016 126.918L229.48 129.166C220.12 130.932 212.409 132.405 202.701 134.233C202.221 134.323 201.884 134.789 201.959 135.27C202.642 139.66 203.815 146.655 205.115 151.763C205.226 152.203 205.655 152.484 206.105 152.431C218.722 150.937 229.616 149.314 241.15 146.192C243.57 147.189 245.835 147.847 245.835 147.847C249.964 148.752 256.336 149.153 260.868 148.49C262.676 148.299 265.949 147.646 266.223 146.857" fill="#89C6B1"/>
<path d="M254.201 79.6695C250.679 81.5984 240.962 83.204 235.719 83.6197L234.656 77.8148C234.285 75.0265 232.313 71.8768 232.084 71.4475C231.795 70.9042 231.149 70.6551 230.573 70.8743C228.179 71.7862 224.345 71.8025 221.467 71.0681C219.998 70.6931 218.531 69.8192 217.255 67.903C215.752 65.6471 214.735 61.2522 214.43 59.2808C214.1 58.4286 213.631 57.6597 212.917 57.0303C211.834 56.0776 210.183 55.4175 210.802 53.5121C211.036 52.7912 211.572 52.2198 212.2 51.7941C215.373 49.6424 215.001 44.5439 214.741 40.8699C214.44 38.8368 214.359 36.9586 214.466 35.2243C214.589 33.52 214.867 31.8211 215.25 30.2544C215.362 30.3685 215.424 30.4301 215.424 30.4301C218.215 33.2429 222.965 37.0573 226.41 39.0342C228.527 40.2495 235.448 44.1255 239.149 44.8011L240.542 45.0556C241.017 44.3601 241.621 43.7488 242.366 43.363C243.26 42.8993 244.373 42.797 245.274 43.2453C246.636 43.9226 247.166 45.6062 247.227 47.1258C247.381 50.8976 245.346 54.674 242.133 56.65C243.346 59.3885 244.608 62.1832 244.898 65.1282C245.121 67.3931 244.688 69.7939 243.377 71.6794C242.607 72.7878 246.666 73.8148 248.553 74.0566C250.792 74.2993 253.337 74.2621 255.001 72.9146C255.54 72.4781 255.976 71.9284 256.303 71.3062C256.3 71.3234 256.302 71.3334 256.302 71.3334L257.288 78.7068C256.213 78.5239 255.181 79.1288 254.227 79.6568C254.218 79.6613 254.21 79.6659 254.202 79.6704L254.201 79.6695Z" fill="white"/>
<path d="M98.9796 167.046C100.09 166.984 101.199 166.923 102.306 166.861C102.499 165.752 102.657 164.853 102.657 164.853C102.838 163.823 103.324 161.812 103.448 160.85C101.76 160.523 96.5378 159.203 95.2715 158.968L88.2705 157.667C88.7156 158.859 90.3996 163.207 91.2426 165.658L91.8562 167.443C94.221 167.31 96.6012 167.177 98.9787 167.045L98.9796 167.046Z" fill="white"/>
<path d="M74.4268 168.432C79.9159 168.119 85.8356 167.782 91.8578 167.443C91.4816 166.348 91.2432 165.657 91.2432 165.657C90.3069 162.935 88.331 157.869 88.1714 157.391C87.3094 157.55 72.207 161.614 71.6768 161.783C71.7601 162.295 72.7735 165.906 73.1741 167.555L73.4016 168.491C73.7415 168.472 74.0842 168.452 74.4268 168.432Z" fill="white"/>
<path d="M116.615 165.73L116.389 166.093C121.91 165.798 127.103 165.528 131.665 165.302C132.223 163.998 132.234 164.841 128.421 159.11C128.249 159.177 128.03 159.218 127.749 159.218H121.552C121.23 159.218 120.983 159.18 120.798 159.114C120.343 159.863 117.7 163.994 117.092 164.967L116.616 165.729L116.615 165.73Z" fill="white"/>
<path d="M121.552 159.218C119.909 159.218 120.254 158.244 120.254 158.088C120.246 156.065 120.258 153.455 120.258 152.904C120.258 152.498 120.374 151.417 121.551 151.417H127.748C128.925 151.417 129.041 152.498 129.041 152.818C129.041 154.657 129.045 157.188 129.045 158.089C129.045 158.318 129.058 159.219 127.747 159.219H121.55" fill="white"/>
<path d="M236.906 293.544C237.418 291.266 237.161 288.683 236.861 286.314C235.055 272.038 233.945 257.686 232.826 243.341C239.242 244.007 245.612 244.218 251.956 243.956C251.908 259.161 251.438 274.376 250.547 289.565C250.45 291.215 250.349 292.875 250.556 294.515C250.677 295.472 250.904 296.415 251.23 297.324C248.518 298.127 243.586 299.03 241.111 299.021C237.003 299.005 236.641 296.617 236.416 295.478C236.398 295.391 236.375 295.311 236.347 295.235C236.593 294.698 236.776 294.132 236.908 293.545L236.906 293.544Z" fill="white"/>
<path d="M255.975 246.749C255.636 246.371 255.311 246.005 254.999 245.654C254.999 245.654 254.345 244.916 253.431 243.887C260.35 243.519 267.24 242.586 274.125 241.064C274.244 241.259 274.311 241.371 274.311 241.371C275.012 242.555 278.089 248.132 279.307 250.073C281.33 252.958 283.063 256.046 284.469 259.276C285.324 261.236 286.064 263.258 287.161 265.095C288.259 266.931 289.77 268.602 291.738 269.445C292.858 269.924 293.974 270.413 295.086 270.875C294.149 273.235 291.188 278.305 289.372 280.363C286.656 283.442 284.619 282.141 283.612 281.561C283.163 281.302 282.735 281.335 282.355 281.543C281.991 279.34 281.207 277.181 280.167 275.202C278.187 271.437 275.337 268.212 272.514 265.028C268.103 260.052 260.77 252.117 255.974 246.75L255.975 246.749Z" fill="white"/>
<path d="M60.091 226.246C59.219 226.246 58.3752 226.246 57.5621 226.246C58.4024 228.84 48.8888 186.04 46.3418 171.293C46.2276 170.63 46.7161 170.027 47.3887 169.989C60.5814 169.242 136.659 164.759 148.045 164.631L154.622 164.558C151.225 182.797 146.821 205.775 142.864 226.254C126.186 226.253 83.313 226.248 60.0928 226.247L60.091 226.246Z" fill="white"/>
<path d="M111.367 1.81145C112.508 1.81145 135.354 1.83228 138.209 1.83228C138.209 3.43339 138.228 31.2218 138.24 37.7177C128.587 37.714 121.565 37.7349 111.404 37.734C111.404 29.3309 111.367 6.18823 111.367 1.81055V1.81145Z" fill="white"/>
<path d="M73.7695 1.81145C74.9107 1.81145 97.7565 1.83228 100.612 1.83228C100.612 3.43339 100.631 31.2218 100.642 37.7177C90.9893 37.714 83.9674 37.7349 73.8067 37.734C73.8067 29.3309 73.7695 6.18823 73.7695 1.81055V1.81145Z" fill="white"/>
<path d="M48.4733 62.012C46.7303 62.012 47.0965 61.014 47.0965 60.8546C47.0883 58.7817 47.1019 56.1083 47.1019 55.5423C47.1019 55.1267 47.2234 54.02 48.4733 54.02H55.0465C56.2956 54.02 56.4179 55.1267 56.4179 55.4536C56.4179 57.3372 56.4234 59.9309 56.4234 60.8537C56.4234 61.0882 56.437 62.0111 55.0465 62.0111L48.4733 62.012Z" fill="white"/>
<path d="M17.9919 62.012C16.2489 62.012 16.6151 61.014 16.6151 60.8546C16.6069 58.7817 16.6205 56.1083 16.6205 55.5423C16.6205 55.1267 16.742 54.02 17.9919 54.02H24.5651C25.8141 54.02 25.9365 55.1267 25.9365 55.4536C25.9365 57.3372 25.9419 59.9309 25.9419 60.8537C25.9419 61.0882 25.9555 62.0111 24.5651 62.0111L17.9919 62.012Z" fill="white"/>
<path d="M68.4753 293.964C67.9179 293.856 64.8914 293.342 62.5103 295.524C60.7591 297.13 60.0032 299.602 60.5461 301.899C61.2287 304.786 63.7457 306.475 66.0172 306.936C66.367 307.007 69.9247 307.668 72.3121 305.148C74.5854 302.748 74.4458 298.893 72.6638 296.498C71.3078 294.674 69.321 294.128 68.4762 293.965L68.4753 293.964Z" fill="white"/>
<path d="M129.707 293.964C129.149 293.856 126.123 293.342 123.742 295.524C121.991 297.13 121.235 299.602 121.778 301.899C122.46 304.786 124.977 306.475 127.249 306.936C127.598 307.007 131.156 307.668 133.544 305.148C135.817 302.748 135.677 298.893 133.895 296.498C132.539 294.674 130.552 294.128 129.708 293.965L129.707 293.964Z" fill="white"/>
<path d="M118.657 165.882C119.744 164.142 120.846 162.412 121.946 160.68C122.454 159.879 122.14 158.648 121.295 158.202C120.399 157.73 119.358 157.997 118.815 158.853C117.716 160.584 116.614 162.315 115.527 164.054C115.024 164.86 115.329 166.085 116.177 166.532C117.068 167.002 118.121 166.741 118.657 165.882Z" fill="#333333"/>
<path d="M127.471 160.942C128.281 162.139 129.143 163.303 129.942 164.507C130.203 164.901 130.56 165.212 131.025 165.339C131.46 165.459 132.037 165.405 132.422 165.156C132.809 164.907 133.15 164.536 133.255 164.074C133.36 163.612 133.342 163.084 133.072 162.679C132.272 161.475 131.411 160.311 130.6 159.113C130.334 158.72 129.986 158.41 129.517 158.281C129.083 158.162 128.506 158.216 128.12 158.464C127.733 158.713 127.393 159.084 127.287 159.546C127.183 160.004 127.198 160.54 127.471 160.942Z" fill="#333333"/>
<path d="M121.552 157.407C121.568 157.407 121.285 157.413 121.275 157.397C121.248 157.354 121.681 157.496 121.416 157.412C121.355 157.393 121.038 157.295 121.377 157.416C121.734 157.544 121.268 157.295 121.587 157.538C121.746 157.658 121.848 157.787 121.936 157.99C122.061 158.283 122.016 158.171 121.99 158.086C121.931 157.895 122.052 158.64 122.038 158.406C122.032 158.312 122.078 158.019 122.02 158.452C121.934 159.092 122.072 157.992 122.066 158.115C122.085 157.759 122.066 157.397 122.066 157.04C122.065 155.707 122.07 154.374 122.073 153.041C122.073 152.981 122.074 152.919 122.073 152.858C122.07 152.5 122.001 152.977 122.033 153.049C122.006 152.99 122.085 152.834 122.095 152.773C122.133 152.537 122.002 152.979 121.994 152.993C122.074 152.84 122.21 152.722 121.881 153.093C122.15 152.788 121.606 153.247 121.848 153.114C121.472 153.321 121.546 153.231 121.692 153.2C121.244 153.297 121.417 153.224 121.553 153.23C121.664 153.234 121.777 153.23 121.889 153.23H127.511C127.586 153.23 127.813 153.263 127.872 153.233C127.833 153.252 127.436 153.135 127.711 153.225C127.259 153.077 127.427 153.083 127.534 153.155C127.108 152.867 127.282 152.935 127.367 153.028C127.585 153.267 127.101 152.652 127.272 152.912C127.416 153.128 127.148 152.439 127.227 152.816C127.234 152.853 127.244 152.908 127.258 152.945C127.335 153.155 127.188 152.652 127.22 152.639C127.186 152.653 127.23 153.423 127.23 153.468C127.23 154.886 127.233 156.304 127.234 157.722C127.234 157.881 127.221 158.046 127.232 158.204C127.25 158.436 127.35 157.643 127.259 157.985C127.252 158.008 127.222 158.076 127.224 158.094C127.195 157.907 127.373 157.763 127.426 157.696C127.681 157.38 127.284 157.743 127.606 157.522C127.871 157.34 127.696 157.453 127.627 157.49C127.425 157.602 128.097 157.305 127.751 157.422C127.535 157.494 127.731 157.311 127.884 157.404C127.826 157.369 127.563 157.408 127.486 157.408L121.552 157.407C120.604 157.407 119.696 158.241 119.739 159.219C119.783 160.197 120.536 161.03 121.552 161.03H127.51C128.402 161.03 129.323 160.871 129.99 160.227C130.571 159.667 130.832 158.941 130.86 158.149C130.912 156.684 130.856 155.207 130.855 153.739C130.855 153.046 130.906 152.312 130.652 151.652C130.195 150.459 129.262 149.751 127.986 149.623C127.067 149.532 126.109 149.607 125.188 149.607H121.888C121.007 149.607 120.182 149.758 119.499 150.362C118.816 150.965 118.519 151.811 118.457 152.694C118.347 154.247 118.437 155.84 118.44 157.397C118.44 157.616 118.4 157.876 118.442 158.09C118.44 158.081 118.511 156.971 118.422 158.245C118.4 158.555 118.434 158.874 118.53 159.17C118.96 160.502 120.256 161.007 121.553 161.03C122.502 161.048 123.409 160.185 123.366 159.219C123.321 158.223 122.569 157.427 121.553 157.408L121.552 157.407Z" fill="#333333"/>
<path d="M68.9558 292.217C65.5559 291.571 62.1632 292.724 60.0939 295.559C57.6919 298.849 58.1959 303.704 61.2042 306.436C63.3886 308.419 66.2211 309.169 69.0999 308.732C73.0463 308.132 75.8009 304.665 75.8199 300.731C75.839 296.624 73.0083 293.026 68.9558 292.217C67.9968 292.026 66.9979 292.491 66.726 293.482C66.4804 294.374 67.0278 295.518 67.9923 295.71C68.4047 295.792 68.798 295.917 69.196 296.05C69.6437 296.2 68.8724 295.87 69.3174 296.101C69.4624 296.176 69.6102 296.245 69.7534 296.325C69.9048 296.409 70.0525 296.5 70.1966 296.596C70.2021 296.599 70.6163 296.922 70.4178 296.754C70.9535 297.207 71.2326 297.537 71.5644 298.14C71.6487 298.293 71.7284 298.449 71.8 298.61C71.6541 298.283 71.8698 298.817 71.8762 298.834C71.9904 299.174 72.0711 299.52 72.1427 299.87C72.2523 300.411 72.1481 299.548 72.1708 300.101C72.178 300.281 72.1934 300.461 72.1952 300.641C72.198 300.941 72.1862 301.244 72.1454 301.541C72.1961 301.169 72.0919 301.752 72.0874 301.772C72.0475 301.949 72.0004 302.123 71.9451 302.296C71.9433 302.302 71.7393 302.857 71.8707 302.543C71.8 302.711 71.7139 302.874 71.6251 303.033C71.2979 303.619 71.0586 303.942 70.4468 304.403C70.687 304.222 70.1903 304.557 70.2021 304.55C70.048 304.644 69.8884 304.722 69.7307 304.809C69.2703 305.061 70.0162 304.738 69.5295 304.895C69.3718 304.946 69.2159 305.002 69.0555 305.047C68.9014 305.09 68.7464 305.127 68.5896 305.16C68.518 305.174 68.0058 305.253 68.4717 305.194C68.2406 305.223 68.0068 305.241 67.7738 305.25C67.3433 305.266 66.9009 305.173 66.4768 305.197C67.0532 305.164 66.7686 305.24 66.5538 305.201C66.3816 305.168 66.2103 305.127 66.0408 305.081C65.8858 305.039 65.7326 304.991 65.5812 304.94C65.5432 304.926 65.0455 304.728 65.4036 304.884C65.0954 304.751 64.7954 304.591 64.509 304.416C64.3621 304.327 64.2216 304.23 64.0793 304.134C63.6388 303.836 64.2941 304.354 63.9008 303.99C63.685 303.791 63.4702 303.595 63.2744 303.375C63.0279 303.1 62.5511 302.327 62.4541 301.978C62.4016 301.789 62.339 301.606 62.2937 301.416C62.2964 301.427 62.1822 300.799 62.2248 301.127C62.1831 300.808 62.1777 300.48 62.1895 300.158C62.1895 300.165 62.242 299.537 62.1985 299.871C62.223 299.681 62.2665 299.49 62.3118 299.304C62.3427 299.179 62.3771 299.055 62.4143 298.933C62.4378 298.858 62.6699 298.278 62.5801 298.467C62.9581 297.663 63.2617 297.23 63.9533 296.659C64.489 296.217 65.0501 295.976 65.6945 295.81C65.8577 295.767 66.0217 295.739 66.1858 295.701C66.5728 295.611 65.9139 295.706 66.3272 295.679C66.6499 295.658 66.9689 295.638 67.2925 295.647C67.511 295.654 67.7267 295.68 67.9442 295.694C68.2732 295.714 67.5499 295.529 67.782 295.672C67.8282 295.701 67.937 295.698 67.9932 295.709C68.9539 295.892 69.9492 295.441 70.2229 294.444C70.4658 293.559 69.9238 292.4 68.9567 292.216L68.9558 292.217Z" fill="#333333"/>
<path d="M130.189 292.217C126.789 291.571 123.397 292.724 121.327 295.559C118.925 298.849 119.429 303.704 122.438 306.436C124.622 308.419 127.455 309.169 130.333 308.732C134.28 308.132 137.034 304.665 137.053 300.731C137.072 296.624 134.242 293.026 130.189 292.217C129.23 292.026 128.231 292.491 127.959 293.482C127.714 294.374 128.261 295.518 129.226 295.71C129.638 295.792 130.031 295.917 130.429 296.05C130.877 296.2 130.106 295.87 130.551 296.101C130.696 296.176 130.844 296.245 130.987 296.325C131.138 296.409 131.286 296.5 131.43 296.596C131.435 296.599 131.85 296.922 131.651 296.754C132.187 297.207 132.466 297.537 132.798 298.14C132.882 298.293 132.962 298.449 133.033 298.61C132.888 298.283 133.103 298.817 133.11 298.834C133.224 299.174 133.304 299.52 133.376 299.87C133.486 300.411 133.382 299.548 133.404 300.101C133.411 300.281 133.427 300.461 133.429 300.641C133.431 300.941 133.42 301.244 133.379 301.541C133.43 301.169 133.325 301.752 133.321 301.772C133.281 301.949 133.234 302.123 133.178 302.296C133.177 302.302 132.973 302.857 133.104 302.543C133.033 302.711 132.947 302.874 132.859 303.033C132.531 303.619 132.292 303.942 131.68 304.403C131.92 304.222 131.424 304.557 131.435 304.55C131.281 304.644 131.122 304.722 130.964 304.809C130.504 305.061 131.25 304.738 130.763 304.895C130.605 304.946 130.449 305.002 130.289 305.047C130.135 305.09 129.98 305.127 129.823 305.16C129.751 305.174 129.239 305.253 129.705 305.194C129.474 305.223 129.24 305.241 129.007 305.25C128.577 305.266 128.134 305.173 127.71 305.197C128.287 305.164 128.002 305.24 127.787 305.201C127.615 305.168 127.444 305.127 127.274 305.081C127.119 305.039 126.966 304.991 126.815 304.94C126.777 304.926 126.279 304.728 126.637 304.884C126.329 304.751 126.029 304.591 125.742 304.416C125.596 304.327 125.455 304.23 125.313 304.134C124.872 303.836 125.528 304.354 125.134 303.99C124.918 303.791 124.704 303.595 124.508 303.375C124.261 303.1 123.785 302.327 123.688 301.978C123.635 301.789 123.572 301.606 123.527 301.416C123.53 301.427 123.416 300.799 123.458 301.127C123.417 300.808 123.411 300.48 123.423 300.158C123.423 300.165 123.475 299.537 123.432 299.871C123.456 299.681 123.5 299.49 123.545 299.304C123.576 299.179 123.611 299.055 123.648 298.933C123.671 298.858 123.903 298.278 123.814 298.467C124.192 297.663 124.495 297.23 125.187 296.659C125.722 296.217 126.283 295.976 126.928 295.81C127.091 295.767 127.255 295.739 127.419 295.701C127.806 295.611 127.147 295.706 127.561 295.679C127.883 295.658 128.202 295.638 128.526 295.647C128.744 295.654 128.96 295.68 129.178 295.694C129.507 295.714 128.783 295.529 129.015 295.672C129.062 295.701 129.17 295.698 129.227 295.709C130.187 295.892 131.183 295.441 131.456 294.444C131.699 293.559 131.157 292.4 130.19 292.216L130.189 292.217Z" fill="#333333"/>
<path d="M148.043 162.82C140.295 162.912 132.538 163.439 124.802 163.839C112.47 164.477 100.14 165.164 87.81 165.861C76.9839 166.472 66.1588 167.096 55.3337 167.721C53.6215 167.819 51.9093 167.918 50.198 168.017C48.4169 168.119 45.9751 167.862 44.9264 169.599C44.1396 170.903 44.7369 172.628 44.9943 174.026C45.2345 175.333 45.4829 176.638 45.7358 177.942C46.334 181.026 46.9558 184.104 47.5857 187.181C50.0693 199.311 52.7323 211.403 55.234 223.53C55.3763 224.222 55.5186 224.914 55.6545 225.608C56.1032 227.893 59.5983 226.925 59.1505 224.645C57.0069 213.717 54.5342 202.85 52.2646 191.946C51.0047 185.892 49.7484 179.835 48.6181 173.755C48.5166 173.21 48.4169 172.666 48.319 172.122C48.2728 171.867 48.2592 171.568 48.1767 171.32C48.1604 171.272 48.1414 170.987 48.1169 170.979C48.1686 171.385 48.0299 171.622 47.7018 171.694C47.4335 171.778 47.3818 171.81 47.5459 171.791C47.8323 171.962 48.9009 171.714 49.2417 171.694C50.8017 171.605 52.3616 171.515 53.9215 171.426C64.1475 170.835 74.3726 170.246 84.5986 169.665C96.8785 168.969 109.16 168.282 121.443 167.637C129.818 167.197 138.2 166.698 146.585 166.473C147.07 166.46 147.556 166.448 148.043 166.443C150.374 166.416 150.381 162.792 148.043 162.82Z" fill="#333333"/>
<path d="M125.485 218.283C127.55 203.653 129.877 189.061 132.31 174.488C132.472 173.524 132.056 172.538 131.044 172.26C130.176 172.022 128.977 172.554 128.814 173.525C126.381 188.098 124.054 202.69 121.989 217.32C121.852 218.287 122.226 219.265 123.255 219.548C124.105 219.781 125.347 219.258 125.485 218.283Z" fill="#333333"/>
<path d="M68.5581 177.803C70.8214 191.269 72.9904 204.752 74.9029 218.274C75.0398 219.244 76.2761 219.775 77.1327 219.539C78.1759 219.253 78.5367 218.284 78.3989 217.311C76.4864 203.79 74.3174 190.306 72.0541 176.84C71.8919 175.875 70.6991 175.335 69.8244 175.575C68.8001 175.856 68.3959 176.835 68.5581 177.803Z" fill="#333333"/>
<path d="M108.62 217.793C109.398 206.593 110.265 195.4 111.07 184.203C111.289 181.167 111.505 178.131 111.711 175.094C111.869 172.766 108.243 172.776 108.085 175.094C107.257 187.302 106.328 199.503 105.434 211.706C105.285 213.735 105.135 215.764 104.994 217.793C104.833 220.119 108.46 220.11 108.62 217.793Z" fill="#333333"/>
<path d="M87.7002 176.226C88.4924 188.071 89.3897 199.909 90.259 211.749C90.4067 213.764 90.5554 215.778 90.7004 217.793C90.8672 220.105 94.4937 220.123 94.326 217.793C93.5338 206.786 92.7062 195.781 91.9222 184.774C91.7192 181.925 91.517 179.076 91.3258 176.226C91.1708 173.912 87.5443 173.895 87.7002 176.226Z" fill="#333333"/>
<path d="M66.4185 206.618C83.622 206.121 100.825 205.623 118.028 205.126C122.942 204.984 127.855 204.842 132.77 204.7C135.097 204.633 135.107 201.009 132.77 201.077C115.81 201.568 98.8513 202.058 81.8916 202.549L66.4194 202.996C64.0918 203.063 64.0809 206.686 66.4185 206.618Z" fill="#333333"/>
<path d="M60.6524 192.009C80.5968 191.166 100.534 190.164 120.475 189.249C126.087 188.992 131.7 188.743 137.313 188.506C139.638 188.408 139.65 184.785 137.313 184.883C117.646 185.714 97.987 186.708 78.3236 187.607C72.4338 187.876 66.5431 188.137 60.6524 188.386C58.3275 188.484 58.3157 192.107 60.6524 192.009Z" fill="#333333"/>
<path d="M232.255 83.2372C231.235 89.7521 226.713 94.9575 224.941 101.229C223.439 106.549 224.575 112.472 225.452 117.806C225.98 121.018 226.611 124.212 227.267 127.4C227.737 129.682 231.233 128.716 230.763 126.437C229.629 120.927 228.492 115.372 228.034 109.757C227.845 107.432 227.733 105.018 228.256 102.881C229.004 99.8233 230.5 97.0486 231.931 94.2693C233.577 91.0716 235.19 87.7861 235.751 84.2008C235.902 83.2354 235.505 82.2528 234.485 81.973C233.625 81.7366 232.407 82.2646 232.255 83.2372Z" fill="#333333"/>
<path d="M245.351 149.595C250.544 150.714 256.087 150.984 261.349 150.238C262.319 150.1 262.851 148.867 262.615 148.01C262.329 146.967 261.359 146.607 260.385 146.745C258.25 147.047 255.546 147.061 253.2 146.947C250.824 146.831 248.612 146.597 246.315 146.102C245.359 145.895 244.355 146.386 244.086 147.367C243.837 148.271 244.39 149.387 245.352 149.595H245.351Z" fill="#333333"/>
<path d="M234.004 85.5297C238.511 85.3857 243.078 84.6214 247.477 83.6723C249.582 83.2186 251.702 82.7033 253.698 81.8837C254.599 81.5133 255.447 80.8957 256.365 80.5996C257.685 80.1739 258.5 82.006 259.064 82.9234C262.615 88.6948 264.145 95.7249 265.471 102.291C266.86 109.174 267.639 116.168 267.817 123.186C268.01 130.81 267.998 138.913 264.658 145.944C263.663 148.039 266.788 149.88 267.789 147.773C270.977 141.058 271.476 133.743 271.481 126.417C271.488 118.789 270.78 111.159 269.414 103.655C268.131 96.6124 266.524 89.2119 263.177 82.8246C261.774 80.1486 259.692 76.326 256.097 76.9446C254.807 77.1664 253.599 78.0259 252.515 78.4823C251.718 78.8174 250.62 79.1497 249.688 79.4078C244.645 80.8051 239.242 81.7406 234.004 81.9082C231.677 81.9824 231.667 85.6039 234.004 85.5297Z" fill="#333333"/>
<path d="M226.394 149.747C224.009 161.245 222.196 172.866 220.787 184.522C219.262 197.151 218.214 209.876 218.16 222.603C218.134 228.943 218.359 235.298 219.116 241.596C219.206 242.341 219.611 243.186 220.447 243.343C233.565 245.796 246.974 246.578 260.259 245.149C266.981 244.425 273.644 243.195 280.175 241.449C282.801 240.746 285.681 240.128 287.854 238.402C290.245 236.503 290.678 233.577 289.615 230.799C288.814 228.703 287.694 226.743 286.889 224.644C286.157 222.737 285.521 220.794 284.945 218.835C283.673 214.512 282.684 210.111 281.787 205.698C279.862 196.225 278.405 186.658 276.315 177.217C274.377 168.463 272.053 159.003 266.4 151.821C265.794 151.051 264.47 151.187 263.836 151.821C263.076 152.581 263.229 153.611 263.836 154.382C268.264 160.008 270.363 167.874 272.048 174.848C274.225 183.848 275.668 193.005 277.395 202.096C278.977 210.42 280.637 218.906 283.857 226.781C284.195 227.607 284.545 228.43 284.919 229.24C285.474 230.44 286.222 231.625 286.496 232.93C287.003 235.341 284.672 236.337 282.75 236.95C276.675 238.888 270.314 240.171 264.006 241.064C249.864 243.066 235.426 242.472 221.409 239.85L222.739 241.597C221.344 229.983 221.619 218.175 222.357 206.524C223.149 193.994 224.606 181.502 226.558 169.101C227.527 162.946 228.622 156.812 229.887 150.711C230.359 148.436 226.865 147.463 226.391 149.748L226.394 149.747Z" fill="#333333"/>
<path d="M253.717 246.933C257.789 251.522 261.949 256.032 266.073 260.573C270.406 265.345 275.312 270.064 278.415 275.763C280.273 279.176 281.326 283.178 280.442 287.036C279.923 289.306 283.417 290.275 283.938 287.999C285.729 280.183 281.643 273.03 276.809 267.217C272.551 262.098 267.945 257.251 263.464 252.328C261.058 249.685 258.653 247.044 256.281 244.371C254.731 242.624 252.175 245.193 253.718 246.932L253.717 246.933Z" fill="#333333"/>
<path d="M277.777 251.037C279.257 253.17 280.593 255.398 281.752 257.721C282.861 259.944 283.696 262.288 284.791 264.515C285.768 266.503 287.052 268.38 288.806 269.76C290.805 271.331 293.433 272.16 295.774 273.094C296.683 273.457 297.765 272.697 298.004 271.829C298.287 270.798 297.65 269.965 296.737 269.601C294.813 268.833 292.47 268.159 290.874 266.797C289.278 265.435 288.287 263.547 287.441 261.662C286.499 259.562 285.669 257.423 284.618 255.371C283.522 253.234 282.276 251.181 280.907 249.209C279.586 247.306 276.442 249.115 277.776 251.037H277.777Z" fill="#333333"/>
<path d="M231.055 243.898C231.782 253.214 232.508 262.531 233.428 271.83C233.884 276.442 234.388 281.049 234.963 285.648C235.357 288.803 236.194 293.055 233.917 295.718C232.409 297.481 234.962 300.056 236.48 298.279C238.495 295.923 239.093 292.978 238.997 289.938C238.888 286.497 238.259 283.053 237.875 279.636C237.024 272.058 236.337 264.464 235.711 256.865C235.354 252.544 235.017 248.221 234.68 243.898C234.5 241.589 230.873 241.569 231.054 243.898H231.055Z" fill="#333333"/>
<path d="M250.135 245.826C250.081 255.302 249.869 264.776 249.49 274.243C249.304 278.902 249.078 283.559 248.812 288.214C248.557 292.683 248.507 296.846 250.91 300.806C252.118 302.796 255.254 300.978 254.04 298.977C251.741 295.187 252.28 291.091 252.514 286.863C252.763 282.358 252.976 277.85 253.151 273.342C253.507 264.175 253.708 255.001 253.76 245.826C253.774 243.495 250.148 243.493 250.135 245.826Z" fill="#333333"/>
<path d="M236.917 12.8695C246.096 11.9413 255.627 16.2085 261.041 23.6724C263.695 27.3311 265.399 31.7395 265.513 36.2531C265.488 36.8716 265.472 37.3742 265.472 37.3742C265.41 39.2678 265.369 41.8986 265.388 44.6308C264.846 55.0217 266.425 60.8746 267.237 63.7145C267.867 65.9242 268.138 67.6765 268.035 69.9251C267.867 73.601 263.164 78.0185 255.081 75.0871C255.081 75.0871 253.976 74.6859 252.296 74.0773C251.101 74.272 249.801 74.1978 248.553 74.0556C246.667 73.8129 242.608 72.7859 243.377 71.6784C244.688 69.7929 245.121 67.3931 244.898 65.1273C244.608 62.1823 243.347 59.3876 242.133 56.649C245.346 54.673 247.381 50.8966 247.228 47.1248C247.166 45.6052 246.637 43.9226 245.275 43.2443C244.373 42.796 243.26 42.8993 242.367 43.362C241.622 43.7478 241.017 44.3591 240.542 45.0546L239.149 44.8001C235.447 44.1245 228.528 40.2477 226.411 39.0333C222.965 37.0563 218.216 33.2419 215.424 30.4291C215.424 30.4291 215.362 30.3675 215.25 30.2534C215.515 29.1685 215.829 28.1461 216.176 27.2296C218.182 21.9337 222.312 17.21 227.883 14.9832C229.425 14.3665 231.051 13.9454 232.688 13.5849C234.058 13.2834 235.445 13.0216 236.841 12.8577L236.918 12.8695H236.917Z" fill="#645D5C"/>
<path d="M241.835 46.394C242.215 45.77 242.611 45.2366 243.282 44.9269C243.773 44.6996 244.233 44.6697 244.683 44.9984C244.467 44.8409 244.854 45.1922 244.864 45.204C244.689 44.9984 245 45.4377 245.005 45.4449C245.242 45.8126 244.987 45.2864 245.133 45.7066C245.196 45.8896 245.251 46.0761 245.298 46.2645C245.296 46.2581 245.412 46.8359 245.369 46.5497C245.397 46.7381 245.406 46.9346 245.415 47.1248C245.433 47.5278 245.423 47.9326 245.391 48.3347C245.348 48.8699 245.167 49.6895 244.921 50.413C244.7 51.0587 244.408 51.6528 243.972 52.3438C243.212 53.5446 242.133 54.5652 240.872 55.2888C238.849 56.4489 240.672 59.5805 242.702 58.4168C246.624 56.1672 249.24 51.6755 249.041 47.1248C248.936 44.7186 247.881 42.0797 245.358 41.3389C242.606 40.5311 240.081 42.3007 238.704 44.5656C237.49 46.5633 240.623 48.3854 241.835 46.394Z" fill="#333333"/>
<path d="M215.463 63.5695C216.182 63.5894 216.899 63.5124 217.609 63.3938C218.05 63.3195 218.486 63.2072 218.902 63.0433C219.681 62.7372 220.461 62.3614 221.043 61.7411C221.368 61.3951 221.575 60.9405 221.575 60.4605C221.575 60.0159 221.377 59.4861 221.043 59.18C220.698 58.8631 220.244 58.6276 219.762 58.6493C219.29 58.6702 218.812 58.8259 218.48 59.18C218.395 59.2706 218.302 59.3521 218.205 59.4291L218.572 59.1456C218.282 59.3693 217.959 59.5432 217.623 59.6863L218.056 59.5033C217.516 59.727 216.947 59.8638 216.368 59.9425L216.85 59.8782C216.39 59.9362 215.927 59.9607 215.463 59.948C214.514 59.9217 213.607 60.8001 213.65 61.7592C213.695 62.7635 214.447 63.5414 215.463 63.5695Z" fill="#333333"/>
<path d="M218.712 46.0661C218.444 47.1538 218.752 49.6143 220.693 49.7365C223.245 49.6043 223.255 46.6131 222.337 45.2484C221.585 44.1309 219.495 43.7469 218.712 46.0661Z" fill="#333333"/>
<path d="M212.668 34.9027C212.397 39.0857 213.797 43.4634 212.791 47.5956C212.621 48.2911 212.385 48.9966 211.948 49.5762C211.357 50.3614 210.433 50.7816 209.829 51.5685C208.486 53.3172 208.572 55.6546 210.206 57.1742C210.818 57.7438 211.6 58.1423 212.125 58.807C212.689 59.5206 212.758 60.2877 212.937 61.1453C213.355 63.153 213.931 65.1299 214.748 67.0136C215.615 69.0149 216.987 70.8696 218.91 71.9699C220.755 73.0259 223.027 73.303 225.118 73.3854C226.4 73.4361 227.677 73.351 228.945 73.1508C229.469 73.0684 229.992 72.9616 230.5 72.8076C230.845 72.7035 231.241 72.7678 230.786 72.4906C230.278 72.18 230.599 72.4128 230.638 72.5712C230.815 73.3039 231.494 74.1144 231.819 74.8045C232.341 75.9138 232.72 77.0839 232.907 78.2956C233.057 79.2627 234.272 79.7979 235.137 79.5607C236.171 79.2772 236.553 78.3028 236.403 77.3329C236.083 75.2627 235.182 73.2903 234.177 71.4655C233.245 69.7702 232.045 68.6246 229.954 69.1752C226.45 70.099 221.322 70.5074 218.94 67.1612C217.847 65.6253 217.306 63.7135 216.838 61.9123C216.337 59.9834 216.201 58.1251 214.903 56.5122C214.34 55.8131 213.645 55.3503 212.963 54.7816C212.76 54.6123 212.55 54.4556 212.434 54.2165C212.606 54.5715 212.447 54.4121 212.462 54.3161C212.502 54.0616 212.59 53.895 212.74 53.7021C213.27 53.0166 214.125 52.6181 214.681 51.9217C215.348 51.0867 215.814 50.1404 216.132 49.1198C217.572 44.4958 215.989 39.6055 216.292 34.9018C216.443 32.5744 212.816 32.5835 212.667 34.9018L212.668 34.9027Z" fill="#333333"/>
<path d="M263.532 45.5448C263.318 51.0672 263.609 56.6593 264.914 62.0467C265.468 64.3306 266.225 66.524 266.241 68.9057C266.244 69.2743 266.248 69.6492 266.216 70.0169C266.198 70.2297 266.223 70.0305 266.23 69.9916C266.212 70.1129 266.186 70.2415 266.155 70.3592C266.036 70.803 265.961 71.0158 265.804 71.2956C265.406 72.0083 264.88 72.6269 264.134 73.1105C261.537 74.7958 258.329 74.3104 255.562 73.3414C253.356 72.5689 252.407 76.0672 254.599 76.8343C259.939 78.7053 267.21 78.0297 269.451 71.9649C270.493 69.1421 269.668 65.6872 268.892 62.9079C268.355 60.9862 267.925 59.041 267.63 57.0668C267.064 53.2633 267.009 49.381 267.158 45.5457C267.247 43.2147 263.622 43.2174 263.532 45.5448Z" fill="#333333"/>
<path d="M236.84 11.0468C229.898 11.9098 223.237 14.0416 218.62 19.5694C214.313 24.7259 212.354 31.536 212.606 38.2058C212.694 40.5295 216.32 40.5413 216.232 38.2058C216.018 32.5575 217.499 26.5344 221.183 22.1313C222.936 20.0358 225.051 18.3178 227.512 17.117C230.352 15.7314 233.722 15.0568 236.84 14.6692C237.812 14.5487 238.653 13.9229 238.653 12.858C238.653 11.9732 237.818 10.9254 236.84 11.0468Z" fill="#333333"/>
<path d="M236.917 14.6807C249.084 13.5351 262.404 22.0822 263.619 34.9028C263.766 36.4496 263.633 38.0145 263.605 39.5658C263.566 41.7057 263.563 43.8456 263.591 45.9847C263.622 48.3139 267.247 48.3202 267.216 45.9847C267.19 43.9697 267.192 41.9538 267.225 39.9389C267.249 38.4618 267.387 36.9549 267.292 35.4806C267.047 31.6771 265.824 27.9777 263.885 24.7021C260.395 18.8039 254.654 14.457 248.168 12.3316C244.564 11.1507 240.693 10.7024 236.917 11.0574C235.943 11.1489 235.104 11.8244 235.104 12.8686C235.104 13.7769 235.937 14.7722 236.917 14.6798V14.6807Z" fill="#333333"/>
<path d="M240.667 57.7898C241.698 60.1145 242.827 62.5678 243.086 65.127C243.205 66.3025 243.147 67.4797 242.827 68.6181C242.54 69.6396 241.781 70.4601 241.534 71.4635C240.982 73.7157 243.716 74.7436 245.376 75.2272C247.369 75.8086 249.528 76.1228 251.601 75.9335C252.963 75.8095 254.351 75.5161 255.517 74.7644C256.864 73.8968 257.703 72.6607 258.316 71.2099C258.697 70.3079 257.906 69.2167 257.05 68.9821C256.003 68.6951 255.202 69.3417 254.82 70.2473C253.87 72.4977 251.126 72.456 249.075 72.2948C248.367 72.2387 247.22 71.9915 246.341 71.7352C246.139 71.6763 245.938 71.6138 245.739 71.5468C245.669 71.5233 245.032 71.2634 245.271 71.3756C245.12 71.3041 244.975 71.2244 244.829 71.1438C244.614 71.0243 244.882 71.1275 244.919 71.295C245.14 71.7551 245.147 72.188 244.943 72.5937C245.026 72.4769 245.103 72.3564 245.178 72.2333C245.353 71.9489 245.509 71.6555 245.65 71.3539C245.959 70.6964 246.219 70.0118 246.396 69.3063C246.761 67.8492 246.851 66.3124 246.677 64.8218C246.312 61.6848 245.066 58.8231 243.796 55.9623C243.399 55.0676 242.094 54.8584 241.317 55.3121C240.394 55.8509 240.269 56.8924 240.667 57.7898Z" fill="#333333"/>
<path d="M214.141 31.7103C217.762 35.3282 221.92 38.5956 226.387 41.1041C228.308 42.1836 230.258 43.216 232.252 44.156C234.297 45.1196 236.435 46.1112 238.667 46.5477C240.946 46.9933 241.921 43.5031 239.63 43.0548C235.598 42.266 231.759 39.9658 228.217 37.9762C224.003 35.6089 220.121 32.5625 216.705 29.1493C215.053 27.4984 212.488 30.0594 214.141 31.7103Z" fill="#333333"/>
<path d="M244.848 147.035C248.327 145.97 251.778 143.841 254.199 141.114C256.885 138.088 257.742 134.002 258.777 130.203C260.63 123.401 261.645 116.607 262.057 109.573C262.296 105.513 262.137 101.025 260.655 97.1938C259.305 93.7027 255.949 91.1172 252.326 90.2814C248.792 89.4663 245.08 90.2696 242.24 92.5191C239.56 94.6418 237.965 97.8404 237.06 101.076C235.833 105.459 235.804 110.2 235.308 114.706C234.82 119.13 234.036 123.484 232.794 127.762C232.143 130.006 235.641 130.964 236.29 128.725C238.307 121.775 238.921 114.647 239.668 107.481C240.239 102.009 241.901 94.324 248.618 93.6267C251.643 93.3124 254.743 94.6645 256.572 97.1033C257.601 98.4744 257.955 100.516 258.191 102.18C258.449 104.005 258.477 105.864 258.489 107.704C258.527 113.87 257.583 120.172 256.092 126.143C255.625 128.016 255.112 129.878 254.586 131.736C254.056 133.611 253.576 135.549 252.578 137.242C250.803 140.254 247.167 142.537 243.884 143.543C241.66 144.225 242.609 147.723 244.847 147.036L244.848 147.035Z" fill="#333333"/>
<path d="M194.15 143.06C186.395 143.045 178.639 143.053 170.883 143.052C168.628 143.052 166.374 143.051 164.119 143.05C161.809 143.049 159.733 143.45 157.954 145.027C155.557 147.15 155.35 150.401 154.799 153.347C151.969 168.504 149.127 183.659 146.261 198.809C144.561 207.799 142.853 216.788 141.117 225.773L142.866 224.444C130.728 224.443 118.59 224.441 106.452 224.44C92.2985 224.438 78.1442 224.437 63.9907 224.435C62.5831 224.435 61.1763 224.435 59.7687 224.435C58.2015 224.435 56.5455 224.264 55.0763 224.903C53.1955 225.72 51.9918 227.509 51.8286 229.538C51.7598 230.401 51.7842 231.297 51.8051 232.162C51.8522 234.108 52.6299 235.924 54.2578 237.056C55.6101 237.996 57.1646 237.961 58.7345 237.961C61.3821 237.961 64.0288 237.961 66.6764 237.961C80.0512 237.961 93.4252 237.962 106.8 237.963C117.513 237.963 128.226 237.965 138.939 237.966C139.61 237.966 140.281 237.966 140.952 237.966L139.204 235.673C137.59 243.979 135.973 252.284 134.351 260.589C133.776 263.53 133.202 266.472 132.627 269.412C132.39 270.623 132.343 272.052 131.196 272.777C130.191 273.413 128.673 273.141 127.531 273.141C114.436 273.141 101.342 273.141 88.2469 273.141C81.5232 273.141 74.7986 273.141 68.075 273.141C65.2289 273.141 62.3837 273.141 59.5376 273.141C58.0583 273.141 56.5356 273.006 55.1479 273.61C53.5707 274.295 52.3299 275.757 52.0045 277.462C51.8069 278.497 51.8812 279.587 51.8767 280.634C51.8712 281.908 51.9147 283.14 52.5601 284.291C54.3176 287.425 57.7547 287.071 60.8301 287.071C67.0598 287.071 73.2895 287.071 79.5201 287.073C94.5899 287.075 109.659 287.078 124.729 287.078C128.246 287.078 131.764 287.078 135.283 287.078C137.067 287.078 138.756 287.101 140.401 286.302C141.982 285.535 143.206 284.138 143.861 282.522C144.447 281.074 144.611 279.391 144.91 277.86C145.244 276.143 145.579 274.426 145.913 272.708C147.81 262.967 149.701 253.224 151.584 243.481C153.903 231.493 156.212 219.503 158.502 207.509C160.645 196.288 162.777 185.065 164.86 173.833C165.662 169.515 166.456 165.197 167.229 160.874C167.387 159.985 167.546 159.096 167.702 158.207C167.772 157.813 167.775 157.195 167.993 156.859C168.388 156.25 169.339 156.483 169.951 156.483C173.057 156.483 176.163 156.483 179.269 156.481C181.559 156.481 183.849 156.48 186.139 156.481C188.472 156.481 188.476 152.859 186.139 152.858C180.743 152.857 175.347 152.861 169.951 152.861C167.907 152.861 166.004 153.115 164.862 155.032C164.312 155.955 164.233 157.094 164.049 158.131C163.714 160.022 163.374 161.913 163.03 163.802C161.189 173.935 159.28 184.056 157.361 194.176C155.09 206.147 152.795 218.112 150.49 230.076C148.409 240.877 146.318 251.677 144.22 262.474C143.439 266.496 142.656 270.517 141.872 274.538C141.576 276.06 141.279 277.582 140.982 279.104C140.824 279.915 140.73 280.79 140.346 281.527C139.715 282.735 138.485 283.414 137.146 283.453C130.096 283.664 123.007 283.453 115.954 283.453C108.364 283.453 100.775 283.452 93.185 283.451C86.1259 283.451 79.0669 283.449 72.0069 283.448C68.9623 283.448 65.9177 283.448 62.8731 283.448C61.5869 283.448 60.3008 283.448 59.0137 283.448C57.9432 283.448 56.5646 283.709 55.8413 282.714C55.3047 281.976 55.5005 280.843 55.5041 279.986C55.5077 279.136 55.3409 278.085 55.9437 277.394C56.7504 276.469 58.1997 276.764 59.2965 276.764C60.6035 276.764 61.9096 276.764 63.2167 276.764C69.5642 276.764 75.9108 276.764 82.2583 276.764C95.6966 276.764 109.134 276.764 122.572 276.764C125.193 276.764 127.949 277.004 130.555 276.718C132.364 276.519 133.958 275.543 134.966 274.03C135.761 272.837 135.924 271.394 136.193 270.021C137.519 263.236 138.843 256.451 140.166 249.665C141.011 245.322 141.857 240.98 142.701 236.637C142.922 235.496 142.202 234.344 140.952 234.344C131.653 234.344 122.353 234.342 113.054 234.341C99.8806 234.34 86.706 234.339 73.5324 234.338C68.1946 234.338 62.855 234.383 57.5172 234.338C55.1261 234.318 55.2295 231.487 55.4479 229.693C55.6292 228.209 56.9163 228.057 58.1453 228.058C59.4995 228.058 60.8537 228.058 62.2069 228.058C75.6652 228.059 89.1225 228.06 102.581 228.062C114.985 228.063 127.388 228.065 139.792 228.066C140.817 228.066 141.841 228.066 142.867 228.066C143.61 228.066 144.465 227.508 144.615 226.736C147.706 210.735 150.721 194.718 153.729 178.701C155.047 171.682 156.362 164.663 157.674 157.643C158.133 155.191 158.569 152.734 159.049 150.286C159.372 148.633 160.365 147.241 162.066 146.805C162.952 146.579 163.901 146.672 164.809 146.673C165.987 146.673 167.165 146.674 168.345 146.674C176.947 146.677 185.55 146.667 194.152 146.682C196.485 146.687 196.488 143.064 194.152 143.06H194.15Z" fill="#333333"/>
<path d="M171.229 146.349C171.269 146.227 171.315 146.111 171.363 146.003C172.496 143.46 173.125 141.443 174.72 139.16C176.197 137.046 178.607 135.264 181.155 134.853C183.255 134.515 185.711 134.711 187.745 135.336C190.8 136.275 195.063 137.651 199.696 138.891L202.549 138.941C203.079 142.112 203.747 145.797 204.479 149.088C201.635 150.3 198.353 151.704 198.353 151.704C195.129 153.045 193.087 153.145 189.62 151.944C187.795 151.312 186.043 150.68 184.555 152.273C183.632 153.263 183.515 153.917 182.709 155.258C182.236 156.046 181.664 156.358 180.409 156.164C179.841 156.076 179.424 155.14 179.385 154.302C179.344 153.401 179.36 152.595 179.412 151.838L178.194 152.713C177.734 153.489 175.931 154.006 175.057 153.545C173.957 152.965 173.841 151.087 174.618 149.428L173.577 149.757C172.838 150.025 171.653 149.663 171.227 148.885C170.858 148.21 170.958 147.145 171.227 146.346L171.229 146.349Z" fill="white"/>
<path d="M177.717 150.456C177.483 152.722 176.896 157.18 179.929 157.912C181.198 158.219 182.662 157.981 183.61 157.042C184.43 156.229 184.786 155.094 185.393 154.139C185.868 153.391 186.366 152.982 187.259 153.124C188.561 153.329 189.784 153.967 191.071 154.257C193.77 154.864 196.298 154.487 198.837 153.451C199.742 153.082 200.385 152.247 200.103 151.224C199.867 150.367 198.785 149.586 197.873 149.959C195.955 150.742 194.094 151.232 192.035 150.764C189.858 150.268 187.644 148.952 185.359 149.675C184.161 150.055 183.26 150.899 182.54 151.901C181.968 152.697 181.646 153.639 181.086 154.439C180.943 154.643 181.057 154.455 181.111 154.43C181.262 154.365 181.345 154.452 180.984 154.41C180.312 154.329 181.26 154.716 181.291 154.658C181.304 154.635 181.199 154.179 181.194 154.124C181.074 152.921 181.22 151.654 181.343 150.456C181.444 149.481 180.438 148.645 179.53 148.645C178.466 148.645 177.817 149.479 177.717 150.456Z" fill="#333333"/>
<path d="M200.178 137.146C196.26 136.09 192.398 134.861 188.518 133.68C184.682 132.513 180.223 132.417 176.774 134.704C173.325 136.99 171.741 140.531 170.186 144.197C169.468 145.889 168.689 147.746 169.555 149.554C170.348 151.211 172.321 151.966 174.061 151.506C176.315 150.91 175.359 147.416 173.098 148.013C173.032 148.031 172.852 148.042 172.77 147.97C172.584 147.807 172.839 148.085 172.794 147.886C172.701 147.465 172.951 146.913 173.096 146.54C173.639 145.149 174.234 143.743 174.904 142.408C176.208 139.813 178.159 137.398 181.119 136.705C184.016 136.028 186.863 136.957 189.602 137.808C192.792 138.801 195.989 139.769 199.216 140.638C201.471 141.246 202.433 137.752 200.179 137.145L200.178 137.146Z" fill="#333333"/>
<path d="M176.49 141.731C175.552 143.228 174.708 144.776 173.969 146.38C173.787 146.776 173.611 147.174 173.44 147.575C173.329 147.834 173.219 148.094 173.111 148.354C173.062 148.47 173.014 148.586 172.966 148.702C172.886 148.892 172.868 148.936 172.913 148.834C172.614 149.574 172.304 150.592 172.307 151.553C172.311 153.295 173.269 155.168 175.144 155.453C176.853 155.713 178.776 155.111 179.762 153.628C180.288 152.837 179.943 151.588 179.111 151.15C178.2 150.669 177.192 150.955 176.631 151.8C177.026 151.206 176.686 151.804 176.628 151.76C176.618 151.751 176.998 151.536 176.635 151.722C176.53 151.775 176.268 151.849 176.637 151.739C176.524 151.772 176.414 151.816 176.3 151.847C176.186 151.879 176.068 151.896 175.954 151.925C176.38 151.818 176 151.895 175.886 151.91C175.558 151.952 176.104 151.979 175.923 151.932C175.655 151.862 175.814 151.904 175.974 151.984C175.684 151.838 176.136 152.156 175.993 152.01C175.846 151.859 176.175 152.315 176.008 152.026C175.817 151.694 176.063 152.359 175.984 151.962C175.973 151.909 175.901 151.514 175.932 151.774C175.964 152.04 175.932 151.607 175.932 151.555C175.932 151.419 175.945 151.284 175.952 151.149C175.963 150.96 175.89 151.368 175.98 151.042C176.027 150.872 176.075 150.7 176.122 150.53C176.223 150.16 176.028 150.706 176.227 150.235C176.307 150.046 176.384 149.857 176.463 149.667C176.46 149.673 176.643 149.237 176.589 149.362C176.528 149.507 176.703 149.099 176.72 149.062C176.981 148.463 177.255 147.869 177.542 147.282C178.168 146.005 178.867 144.767 179.621 143.562C180.125 142.758 179.819 141.532 178.971 141.084C178.08 140.614 177.028 140.875 176.491 141.735L176.49 141.731Z" fill="#333333"/>
<path d="M179.785 153.403C179.895 153.087 180.009 152.773 180.13 152.463C180.16 152.386 180.191 152.309 180.222 152.232C180.232 152.208 180.389 151.832 180.272 152.106C180.168 152.351 180.281 152.088 180.302 152.039C180.334 151.964 180.368 151.889 180.402 151.814C180.677 151.203 180.979 150.604 181.307 150.019C181.625 149.452 181.968 148.898 182.331 148.359C182.527 148.069 182.728 147.784 182.936 147.503C183.035 147.369 183.135 147.236 183.235 147.104C183.384 146.907 183.026 147.366 183.182 147.174C183.249 147.092 183.313 147.009 183.378 146.927C183.69 146.539 183.909 146.165 183.909 145.647C183.909 145.202 183.712 144.673 183.378 144.366C182.72 143.763 181.448 143.577 180.815 144.366C178.852 146.816 177.318 149.469 176.289 152.442C175.979 153.338 176.643 154.462 177.555 154.669C178.565 154.899 179.453 154.364 179.785 153.404V153.403Z" fill="#333333"/>
<path d="M232.605 126.74C226.291 127.928 219.98 129.126 213.668 130.322C210.498 130.923 207.329 131.523 204.158 132.121C202.637 132.408 200.885 132.534 200.3 134.242C199.89 135.439 200.393 136.931 200.59 138.143C201.035 140.872 201.511 143.596 202.049 146.307C202.31 147.625 202.585 148.941 202.885 150.25C203.214 151.684 203.397 153.323 204.895 154.002C206.229 154.607 208.148 154 209.545 153.826C211.242 153.615 212.939 153.395 214.634 153.166C217.739 152.746 220.838 152.29 223.928 151.769C230.986 150.58 237.975 149.033 244.848 147.034C247.084 146.384 246.133 142.888 243.885 143.541C237.719 145.334 231.461 146.769 225.14 147.898C222.012 148.457 218.872 148.946 215.725 149.39C214.089 149.62 212.452 149.837 210.815 150.045C210.036 150.143 209.257 150.24 208.479 150.335C208.049 150.388 207.619 150.439 207.189 150.491C206.972 150.517 206.757 150.543 206.54 150.569C205.974 150.582 205.961 150.634 206.499 150.726L206.965 151.526C206.448 150.299 206.271 148.827 205.993 147.527C205.669 146.006 205.371 144.479 205.088 142.949C204.824 141.525 204.574 140.097 204.334 138.669C204.224 138.014 204.116 137.36 204.01 136.705C203.961 136.4 203.912 136.095 203.863 135.789C203.84 135.643 203.817 135.497 203.794 135.35C203.738 134.951 203.733 134.972 203.776 135.412L203.125 136.062C203.496 135.778 204.424 135.745 204.909 135.654C205.541 135.534 206.174 135.415 206.806 135.296C208.098 135.052 209.391 134.808 210.682 134.563C213.165 134.093 215.647 133.622 218.128 133.152C223.274 132.176 228.421 131.202 233.568 130.233C235.858 129.802 234.889 126.31 232.604 126.74H232.605Z" fill="#333333"/>
<path d="M74.9221 167.073C74.4498 165.151 73.7864 163.247 73.4247 161.301L72.1585 163.529C74.8341 162.702 77.5769 162.053 80.2816 161.329C83.0525 160.588 85.8369 159.688 88.6531 159.137L86.4234 157.872C87.3814 160.649 88.5335 163.36 89.4952 166.138C90.2529 168.328 93.7562 167.387 92.9912 165.175C92.0295 162.397 90.8783 159.686 89.9194 156.909C89.5822 155.931 88.7057 155.446 87.6896 155.644C84.8725 156.195 82.0881 157.095 79.3181 157.836C76.6134 158.56 73.8706 159.209 71.1949 160.036C70.1997 160.343 69.7447 161.273 69.9287 162.264C70.2904 164.209 70.9538 166.114 71.4261 168.035C71.9826 170.298 75.4795 169.339 74.9221 167.073Z" fill="#333333"/>
<path d="M94.7891 160.714C97.5373 161.232 100.221 162.06 102.966 162.596L101.699 160.368C101.518 161.717 101.147 163.034 100.908 164.372C100.742 165.301 101.159 166.369 102.174 166.6C103.059 166.801 104.226 166.332 104.404 165.335C104.643 163.996 105.014 162.68 105.195 161.331C105.261 160.847 105.294 160.372 105.012 159.936C104.768 159.556 104.389 159.193 103.929 159.103C101.185 158.567 98.5008 157.739 95.7526 157.221C94.8235 157.047 93.7521 157.479 93.5228 158.487C93.3198 159.378 93.7929 160.527 94.7891 160.714Z" fill="#333333"/>
<path d="M56.2782 62.8419C57.6505 64.7998 58.3258 65.651 58.7663 66.2931C59.1289 66.822 59.4262 67.2123 59.6936 67.5492C60.9136 69.0824 61.5879 70.9769 61.6061 72.9357C61.6931 82.3069 61.8662 90.7136 61.8662 100.14C61.8662 102.395 61.9287 103.963 60.7096 104.877C59.6337 105.683 57.7321 105.906 56.387 105.906H47.6013C45.8882 105.906 43.4209 105.464 42.8164 104.407C42.3215 103.541 42.1221 102.092 42.1221 100.14C42.1221 90.8168 42.2934 82.469 42.3795 73.2418C42.3994 71.1191 43.1164 69.0606 44.4234 67.3871C44.6573 67.0873 44.9165 66.7396 45.2229 66.294C45.6634 65.6519 46.8707 64.0436 47.7526 62.5747" fill="#C4DBEE"/>
<path d="M25.7958 62.8419C27.1681 64.7998 27.8434 65.651 28.2839 66.2931C28.6464 66.822 28.9437 67.2123 29.2111 67.5492C30.4311 69.0824 31.1055 70.9769 31.1236 72.9357C31.2107 82.3069 31.3838 90.7136 31.3838 100.14C31.3838 102.395 31.4463 103.963 30.2272 104.877C29.1513 105.683 27.2497 105.906 25.9046 105.906H17.1188C15.4057 105.906 12.9385 105.464 12.334 104.407C11.8391 103.541 11.6396 102.092 11.6396 100.14C11.6396 90.8168 11.811 82.469 11.8971 73.2418C11.917 71.1191 12.634 69.0606 13.941 67.3871C14.1749 67.0873 14.4341 66.7396 14.7404 66.294C15.181 65.6519 16.3883 64.0436 17.2702 62.5747" fill="#C4DBEE"/>
<path d="M42.3993 77.3177C42.3295 81.6673 42.2371 82.9542 42.209 87.7865C48.5157 87.5836 55.6373 87.7122 61.9368 87.877C61.9096 82.9596 61.8171 81.5976 61.7428 77.3096C60.5527 77.3096 44.4052 77.3177 42.3993 77.3177Z" fill="white"/>
<path d="M11.8388 77.3177C11.769 81.6673 11.6765 82.9542 11.6484 87.7865C17.9552 87.5836 25.0768 87.7122 31.3762 87.877C31.3491 82.9596 31.2566 81.5976 31.1823 77.3096C29.9922 77.3096 13.8446 77.3177 11.8388 77.3177Z" fill="white"/>
<path d="M167.856 105.016C159.415 104.979 150.974 104.974 142.533 104.965C129.942 104.952 117.352 104.947 104.762 104.945C90.9464 104.941 77.1311 104.941 63.3157 104.94C51.0929 104.94 38.8701 104.94 26.6473 104.936C18.8559 104.933 11.0635 104.935 3.27211 104.917C2.76543 104.916 2.25784 104.914 1.75117 104.912C-0.581909 104.905 -0.585535 108.527 1.75117 108.535C8.79662 108.557 15.8412 108.554 22.8866 108.557C34.7596 108.562 46.6325 108.562 58.5054 108.563C72.2809 108.563 86.0555 108.564 99.831 108.566C112.687 108.569 125.544 108.573 138.4 108.583C147.505 108.592 156.61 108.598 165.714 108.631C166.429 108.633 167.144 108.636 167.858 108.639C170.191 108.649 170.195 105.026 167.858 105.016H167.856Z" fill="#333333"/>
<path d="M167.856 112.362C159.415 112.325 150.974 112.319 142.533 112.31C129.942 112.298 117.352 112.293 104.762 112.29C90.9464 112.287 77.1311 112.287 63.3157 112.286C51.0929 112.286 38.8701 112.286 26.6473 112.281C18.8559 112.279 11.0635 112.28 3.27211 112.262C2.76543 112.261 2.25784 112.26 1.75117 112.258C-0.581909 112.251 -0.585535 115.873 1.75117 115.88C8.79662 115.903 15.8412 115.9 22.8866 115.903C34.7596 115.907 46.6325 115.907 58.5054 115.908C72.2809 115.908 86.0555 115.909 99.831 115.912C112.687 115.915 125.544 115.918 138.4 115.929C147.505 115.937 156.61 115.944 165.714 115.976C166.429 115.979 167.144 115.982 167.858 115.984C170.191 115.994 170.195 112.372 167.858 112.362H167.856Z" fill="#333333"/>
<path d="M54.7123 63.7561C55.4692 64.8319 56.2587 65.8842 57.0228 66.9546C57.8213 68.074 58.7993 69.1507 59.3078 70.4439C59.9776 72.1474 59.8018 74.0138 59.8217 75.8069C59.8435 77.7485 59.8679 79.6901 59.8924 81.6317C59.9423 85.534 59.9939 89.4353 60.0248 93.3376C60.0402 95.3063 60.0492 97.276 60.0519 99.2448C60.0528 100.146 60.0773 101.051 60.0347 101.952C60.0166 102.331 60.0184 102.917 59.8063 103.246C59.2144 104.164 57.1768 104.087 56.2451 104.094C55.2154 104.102 54.1857 104.094 53.156 104.094C50.9326 104.094 48.5878 104.301 46.3762 104.027C45.8088 103.957 45.1725 103.85 44.6522 103.605C44.2806 103.43 44.296 103.356 44.1763 102.911C43.7313 101.252 43.9334 99.3779 43.938 97.6808C43.9506 93.7215 43.9914 89.7613 44.0413 85.802C44.0685 83.5887 44.0984 81.3764 44.1256 79.1631C44.1519 77.015 44.0494 74.8234 44.2144 72.6817C44.3612 70.779 45.2577 69.3074 46.3599 67.8086C47.3922 66.4059 48.4074 64.9732 49.3156 63.488C50.5356 61.4939 47.4013 59.6718 46.1849 61.6596C44.3413 64.6734 41.5532 67.3531 40.8254 70.9112C40.4048 72.9669 40.5471 75.1232 40.5226 77.2097C40.4964 79.4338 40.4673 81.658 40.4383 83.8822C40.3821 88.2598 40.3305 92.6375 40.3133 97.0161C40.3015 100.068 39.56 105.108 42.9028 106.77C45.3728 107.999 48.3422 107.717 51.0197 107.717C53.7624 107.717 56.7744 108.028 59.4592 107.366C61.1287 106.955 62.5935 106.027 63.2316 104.38C63.8742 102.724 63.6775 100.761 63.6748 99.0211C63.6685 94.6407 63.625 90.2603 63.5706 85.8799C63.5407 83.4629 63.508 81.0467 63.4781 78.6297C63.4491 76.2334 63.6313 73.7331 63.2724 71.3595C62.7195 67.709 59.8969 64.8518 57.8403 61.9267C56.5088 60.0331 53.3645 61.8416 54.7096 63.7552L54.7123 63.7561Z" fill="#333333"/>
<path d="M48.4735 60.2009C48.4735 60.2009 48.2043 60.2136 48.179 60.19C48.2143 60.2217 48.5415 60.2779 48.2995 60.2027C47.8472 60.0632 48.5243 60.3539 48.3158 60.2235C48.711 60.4708 48.6267 60.4843 48.5261 60.3784C48.8388 60.7062 48.7844 60.737 48.7092 60.603C48.9304 60.996 48.8778 61.0395 48.8316 60.8638C48.7799 60.67 48.885 61.4144 48.8787 61.1789C48.8705 60.8665 48.8388 61.3782 48.8298 61.4597C48.8524 61.2704 48.8941 61.082 48.9077 60.8919C48.9331 60.5414 48.9086 60.181 48.9086 59.8296C48.9068 58.4585 48.9122 57.0874 48.9159 55.7164C48.9159 55.6421 48.9159 55.5678 48.9159 55.4927C48.9159 55.2645 49.04 55.2002 48.8796 55.6638C48.8923 55.6267 48.9657 55.3985 48.9521 55.3686C48.9467 55.3559 48.7627 55.8368 48.8651 55.576C48.8896 55.5135 49.0419 55.2672 48.8669 55.5479C48.6548 55.8902 49.0228 55.4302 48.7364 55.6892C48.4228 55.9726 48.9403 55.5832 48.5923 55.7807L48.4717 55.8332C48.6195 55.7988 48.6158 55.7951 48.4599 55.8196C48.4672 55.845 48.1255 55.8214 48.4871 55.8305C48.6104 55.8341 48.7346 55.8305 48.8588 55.8305H54.7449C54.8455 55.8305 54.948 55.8341 55.0486 55.8305C55.1755 55.8259 55.3749 55.892 54.9425 55.8042C55.083 55.8332 55.1809 55.9301 54.8102 55.7263C54.9307 55.7924 55.0241 55.8939 54.6769 55.5986C54.734 55.6466 54.9262 55.8549 54.7078 55.6077C54.5056 55.3786 54.6525 55.5561 54.6933 55.6339C54.6815 55.6113 54.5655 55.1875 54.5936 55.4166C54.5981 55.4546 54.6171 55.5226 54.6289 55.5552C54.6788 55.691 54.5537 55.9047 54.5954 55.2617C54.5781 55.5289 54.6072 55.8114 54.6072 56.0795C54.6072 57.5683 54.6108 59.0571 54.6117 60.5459C54.6117 60.6945 54.5972 60.8493 54.6081 60.9969C54.6198 61.1636 54.744 60.4273 54.6189 60.804C54.5573 60.9906 54.831 60.373 54.7259 60.5468C54.6253 60.7135 55.0594 60.1918 54.8609 60.3784C54.6724 60.5559 55.035 60.2444 55.035 60.2444C54.8029 60.3992 55.1773 60.1547 55.2018 60.1783C55.1927 60.1701 54.9924 60.2507 54.9779 60.2308C54.9597 60.2045 55.3712 60.2136 55.0468 60.1982C54.9289 60.1927 54.8084 60.1982 54.6905 60.1982H48.4735C47.5254 60.1982 46.6172 61.0313 46.6607 62.0094C46.7042 62.9874 47.4575 63.8206 48.4735 63.8206H54.7431C55.5108 63.8206 56.2677 63.7355 56.9366 63.3252C57.7777 62.809 58.1992 61.8935 58.2355 60.9335C58.2935 59.3922 58.2328 57.8373 58.2319 56.295C58.2319 55.451 58.2346 54.6541 57.8557 53.8762C57.349 52.8384 56.3139 52.2742 55.1818 52.2099C54.2029 52.1546 53.2077 52.2053 52.2279 52.2053H48.8307C48.0929 52.2053 47.3541 52.2814 46.7197 52.6971C45.8051 53.2957 45.37 54.2846 45.2993 55.346C45.1915 56.9498 45.2803 58.5916 45.2839 60.1991C45.2839 60.4092 45.2504 60.66 45.2848 60.8683C45.2522 60.6691 45.3655 60.2752 45.3392 60.4617C45.3129 60.6437 45.2803 60.8276 45.2649 61.0105C45.2386 61.3238 45.2866 61.6462 45.3746 61.9469C45.7734 63.3089 47.1901 63.7979 48.4754 63.8206C49.4244 63.8378 50.3317 62.9757 50.2882 62.0094C50.2437 61.0141 49.4914 60.2163 48.4754 60.1982L48.4735 60.2009Z" fill="#333333"/>
<path d="M42.882 79.1398C49.0093 79.1398 55.1366 79.1199 61.2638 79.119C63.5969 79.119 63.6005 75.4966 61.2638 75.4966C55.1366 75.4966 49.0093 75.5165 42.882 75.5174C40.549 75.5174 40.5453 79.1398 42.882 79.1398Z" fill="#333333"/>
<path d="M42.4252 89.5978C48.7918 89.4103 55.1647 89.5253 61.5304 89.6893C63.8643 89.749 63.8634 86.1266 61.5304 86.0669C55.1638 85.9038 48.7918 85.7879 42.4252 85.9754C40.0976 86.0442 40.0876 89.6666 42.4252 89.5978Z" fill="#333333"/>
<path d="M24.2299 63.7561C24.9868 64.8319 25.7762 65.8842 26.5403 66.9546C27.3389 68.074 28.3169 69.1507 28.8254 70.4439C29.4952 72.1474 29.3194 74.0138 29.3393 75.8069C29.3611 77.7485 29.3855 79.6901 29.41 81.6317C29.4599 85.534 29.5115 89.4353 29.5423 93.3376C29.5577 95.3063 29.5668 97.276 29.5695 99.2448C29.5704 100.146 29.5949 101.051 29.5523 101.952C29.5342 102.331 29.536 102.917 29.3239 103.246C28.732 104.164 26.6944 104.087 25.7626 104.094C24.733 104.102 23.7033 104.094 22.6736 104.094C20.4502 104.094 18.1054 104.301 15.8938 104.027C15.3263 103.957 14.6901 103.85 14.1698 103.605C13.7982 103.43 13.8136 103.356 13.6939 102.911C13.2489 101.252 13.451 99.3779 13.4555 97.6808C13.4682 93.7215 13.509 89.7613 13.5589 85.802C13.5861 83.5887 13.616 81.3764 13.6432 79.1631C13.6694 77.015 13.567 74.8234 13.732 72.6817C13.8788 70.779 14.7753 69.3074 15.8774 67.8086C16.9098 66.4059 17.925 64.9732 18.8332 63.488C20.0532 61.4939 16.9189 59.6718 15.7025 61.6596C13.8589 64.6734 11.0708 67.3531 10.343 70.9112C9.92238 72.9669 10.0647 75.1232 10.0402 77.2097C10.0139 79.4338 9.98493 81.658 9.95592 83.8822C9.89972 88.2598 9.84806 92.6375 9.83084 97.0161C9.81906 100.068 9.07762 105.108 12.4204 106.77C14.8904 107.999 17.8597 107.717 20.5372 107.717C23.28 107.717 26.292 108.028 28.9767 107.366C30.6463 106.955 32.1111 106.027 32.7492 104.38C33.3918 102.724 33.1951 100.761 33.1924 99.0211C33.1861 94.6407 33.1426 90.2603 33.0882 85.8799C33.0583 83.4629 33.0256 81.0467 32.9957 78.6297C32.9667 76.2334 33.1489 73.7331 32.79 71.3595C32.2371 67.709 29.4145 64.8518 27.3579 61.9267C26.0264 60.0331 22.8821 61.8416 24.2272 63.7552L24.2299 63.7561Z" fill="#333333"/>
<path d="M17.9921 60.2009C17.9921 60.2009 17.7229 60.2136 17.6975 60.19C17.7329 60.2217 18.0601 60.2779 17.8181 60.2027C17.3658 60.0632 18.0429 60.3539 17.8344 60.2235C18.2296 60.4708 18.1453 60.4843 18.0447 60.3784C18.3574 60.7062 18.303 60.737 18.2278 60.603C18.4489 60.996 18.3963 61.0395 18.3501 60.8638C18.2985 60.67 18.4036 61.4144 18.3973 61.1789C18.3891 60.8665 18.3574 61.3782 18.3483 61.4597C18.371 61.2704 18.4127 61.082 18.4263 60.8919C18.4516 60.5414 18.4272 60.181 18.4272 59.8296C18.4254 58.4585 18.4308 57.0874 18.4344 55.7164C18.4344 55.6421 18.4344 55.5678 18.4344 55.4927C18.4344 55.2645 18.5586 55.2002 18.3982 55.6638C18.4109 55.6267 18.4843 55.3985 18.4707 55.3686C18.4652 55.3559 18.2812 55.8368 18.3837 55.576C18.4081 55.5135 18.5604 55.2672 18.3855 55.5479C18.1734 55.8902 18.5414 55.4302 18.255 55.6892C17.9413 55.9726 18.4589 55.5832 18.1108 55.7807L17.9903 55.8332C18.138 55.7988 18.1344 55.7951 17.9785 55.8196C17.9857 55.845 17.644 55.8214 18.0057 55.8305C18.129 55.8341 18.2531 55.8305 18.3773 55.8305H24.2635C24.3641 55.8305 24.4665 55.8341 24.5671 55.8305C24.694 55.8259 24.8934 55.892 24.4611 55.8042C24.6016 55.8332 24.6995 55.9301 24.3287 55.7263C24.4493 55.7924 24.5426 55.8939 24.1955 55.5986C24.2526 55.6466 24.4448 55.8549 24.2263 55.6077C24.0242 55.3786 24.171 55.5561 24.2118 55.6339C24.2 55.6113 24.084 55.1875 24.1121 55.4166C24.1166 55.4546 24.1357 55.5226 24.1475 55.5552C24.1973 55.691 24.0722 55.9047 24.1139 55.2617C24.0967 55.5289 24.1257 55.8114 24.1257 56.0795C24.1257 57.5683 24.1293 59.0571 24.1302 60.5459C24.1302 60.6945 24.1157 60.8493 24.1266 60.9969C24.1384 61.1636 24.2626 60.4273 24.1375 60.804C24.0759 60.9906 24.3496 60.373 24.2444 60.5468C24.1438 60.7135 24.578 60.1918 24.3795 60.3784C24.191 60.5559 24.5535 60.2444 24.5535 60.2444C24.3215 60.3992 24.6958 60.1547 24.7203 60.1783C24.7112 60.1701 24.5109 60.2507 24.4964 60.2308C24.4783 60.2045 24.8898 60.2136 24.5653 60.1982C24.4475 60.1927 24.3269 60.1982 24.2091 60.1982H17.9921C17.044 60.1982 16.1358 61.0313 16.1793 62.0094C16.2228 62.9874 16.976 63.8206 17.9921 63.8206H24.2617C25.0294 63.8206 25.7862 63.7355 26.4552 63.3252C27.2963 62.809 27.7178 61.8935 27.754 60.9335C27.812 59.3922 27.7513 57.8373 27.7504 56.295C27.7504 55.451 27.7531 54.6541 27.3742 53.8762C26.8676 52.8384 25.8325 52.2742 24.7004 52.2099C23.7215 52.1546 22.7262 52.2053 21.7464 52.2053H18.3492C17.6114 52.2053 16.8727 52.2814 16.2382 52.6971C15.3237 53.2957 14.8886 54.2846 14.8179 55.346C14.71 56.9498 14.7988 58.5916 14.8025 60.1991C14.8025 60.4092 14.7689 60.66 14.8034 60.8683C14.7707 60.6691 14.884 60.2752 14.8578 60.4617C14.8315 60.6437 14.7988 60.8276 14.7834 61.0105C14.7572 61.3238 14.8052 61.6462 14.8931 61.9469C15.2919 63.3089 16.7086 63.7979 17.9939 63.8206C18.9429 63.8378 19.8502 62.9757 19.8067 62.0094C19.7623 61.0141 19.01 60.2163 17.9939 60.1982L17.9921 60.2009Z" fill="#333333"/>
<path d="M12.4006 79.1398C18.5278 79.1398 24.6551 79.1199 30.7824 79.119C33.1155 79.119 33.1191 75.4966 30.7824 75.4966C24.6551 75.4966 18.5278 75.5165 12.4006 75.5174C10.0675 75.5174 10.0639 79.1398 12.4006 79.1398Z" fill="#333333"/>
<path d="M11.9428 89.5978C18.3094 89.4103 24.6823 89.5253 31.0479 89.6893C33.3819 89.749 33.381 86.1266 31.0479 86.0669C24.6814 85.9038 18.3094 85.7879 11.9428 85.9754C9.61519 86.0442 9.60522 89.6666 11.9428 89.5978Z" fill="#333333"/>
<path d="M79.758 101.967C79.5187 100.935 79.6801 99.7073 79.6728 98.6541C79.6592 96.5993 79.6447 94.5445 79.6302 92.4897C79.6039 88.7649 79.5713 85.0411 79.5568 81.3163C79.5523 80.2541 79.7326 79.2615 80.1432 78.269C80.5022 77.4023 81.2935 76.6036 81.4539 75.6916C81.521 75.3113 81.5663 74.7706 81.4865 74.3912C81.4031 73.9918 81.6669 74.1186 81.3732 74.3631L80.5729 74.8286C80.8919 74.6964 81.8137 74.7815 82.3086 74.7815C83.4833 74.7815 84.6589 74.7797 85.8336 74.7788C88.2963 74.777 90.7599 74.7752 93.2226 74.7743C93.5471 74.7743 93.9486 74.8386 94.2668 74.7743C94.3103 74.7652 94.4018 74.7951 94.4363 74.7743C93.9559 75.0568 95.1967 72.5429 93.6133 74.1566C93.5407 74.2309 93.6133 74.7969 93.6133 74.9056C93.6133 75.4661 93.5652 76.0584 93.8607 76.5628C94.0501 76.887 94.2704 76.9441 94.4598 77.1995C94.875 77.76 95.0753 78.4664 95.2493 79.1302C95.6046 80.4832 95.5502 81.7266 95.552 83.2507C95.5584 87.92 95.5656 92.5902 95.5729 97.2595C95.5747 98.6296 95.6563 100.028 95.5584 101.396C95.5058 102.131 95.3662 102.956 94.9783 103.597C95.049 103.481 94.8151 103.828 94.7898 103.885C94.6185 104.264 94.5822 103.964 94.8451 103.926C94.9756 103.907 94.8967 103.927 94.8559 103.929C94.3483 103.96 93.8308 103.939 93.3223 103.945C89.268 103.984 85.2136 104.023 81.1593 104.063L82.0739 104.31C81.0134 103.807 80.1088 103.121 79.758 101.967C79.0828 99.7417 75.5822 100.691 76.262 102.93C76.9065 105.052 78.9604 107.61 81.3569 107.684C82.7029 107.726 84.0607 107.658 85.4076 107.644C88.5574 107.613 91.7388 107.714 94.8849 107.552C99.4396 107.317 99.2057 101.337 99.2012 97.9894C99.1949 93.8933 99.1885 89.7964 99.1831 85.7004C99.1813 84.1789 99.1967 82.6566 99.1767 81.1361C99.1486 78.9409 98.5305 75.8012 96.7095 74.3695L97.2407 75.65C97.2407 74.2209 97.3948 72.5193 96.0252 71.621C95.2584 71.1174 94.4073 71.1528 93.5344 71.1537C91.4742 71.1537 89.413 71.1564 87.3528 71.1573C85.3569 71.1582 83.361 71.16 81.3642 71.1609C80.4514 71.1609 79.545 71.1455 78.8099 71.803C77.7404 72.7593 77.8618 74.1512 77.8609 75.4526L78.1084 74.5388C75.5804 78.0299 75.933 81.9738 75.9602 86.0119C75.9883 90.1677 76.0191 94.3235 76.0472 98.4793C76.0572 99.9419 75.9303 101.499 76.2629 102.932C76.7887 105.202 80.2855 104.242 79.7589 101.969L79.758 101.967Z" fill="#333333"/>
<path d="M108.361 101.967C108.121 100.935 108.283 99.7073 108.275 98.6541C108.262 96.5993 108.247 94.5445 108.233 92.4897C108.206 88.7649 108.174 85.0411 108.159 81.3163C108.155 80.2541 108.335 79.2615 108.746 78.269C109.105 77.4023 109.896 76.6036 110.056 75.6916C110.124 75.3113 110.169 74.7706 110.089 74.3912C110.006 73.9918 110.269 74.1186 109.976 74.3631L109.175 74.8286C109.494 74.6964 110.416 74.7815 110.911 74.7815C112.086 74.7815 113.261 74.7797 114.436 74.7788C116.899 74.777 119.362 74.7752 121.825 74.7743C122.15 74.7743 122.551 74.8386 122.869 74.7743C122.913 74.7652 123.004 74.7951 123.039 74.7743C122.558 75.0568 123.799 72.5429 122.216 74.1566C122.143 74.2309 122.216 74.7969 122.216 74.9056C122.216 75.4661 122.168 76.0584 122.463 76.5628C122.653 76.887 122.873 76.9441 123.062 77.1995C123.478 77.76 123.678 78.4664 123.852 79.1302C124.207 80.4832 124.153 81.7266 124.155 83.2507C124.161 87.92 124.168 92.5902 124.175 97.2595C124.177 98.6296 124.259 100.028 124.161 101.396C124.108 102.131 123.969 102.956 123.581 103.597C123.652 103.481 123.418 103.828 123.392 103.885C123.221 104.264 123.185 103.964 123.448 103.926C123.578 103.907 123.499 103.927 123.458 103.929C122.951 103.96 122.433 103.939 121.925 103.945C117.871 103.984 113.816 104.023 109.762 104.063L110.676 104.31C109.616 103.807 108.711 103.121 108.361 101.967C107.685 99.7417 104.185 100.691 104.865 102.93C105.509 105.052 107.563 107.61 109.959 107.684C111.305 107.726 112.663 107.658 114.01 107.644C117.16 107.613 120.341 107.714 123.487 107.552C128.042 107.317 127.808 101.337 127.804 97.9894C127.797 93.8933 127.791 89.7964 127.786 85.7004C127.784 84.1789 127.799 82.6566 127.779 81.1361C127.751 78.9409 127.133 75.8012 125.312 74.3695L125.843 75.65C125.843 74.2209 125.997 72.5193 124.628 71.621C123.861 71.1174 123.01 71.1528 122.137 71.1537C120.077 71.1537 118.016 71.1564 115.955 71.1573C113.959 71.1582 111.963 71.16 109.967 71.1609C109.054 71.1609 108.148 71.1455 107.412 71.803C106.343 72.7593 106.464 74.1512 106.463 75.4526L106.711 74.5388C104.183 78.0299 104.536 81.9738 104.563 86.0119C104.591 90.1677 104.622 94.3235 104.65 98.4793C104.66 99.9419 104.533 101.499 104.865 102.932C105.391 105.202 108.888 104.242 108.361 101.969L108.361 101.967Z" fill="#333333"/>
<path d="M136.961 101.967C136.722 100.935 136.883 99.7073 136.876 98.6541C136.862 96.5993 136.848 94.5445 136.833 92.4897C136.807 88.7649 136.774 85.0411 136.76 81.3163C136.755 80.2541 136.936 79.2615 137.346 78.269C137.705 77.4023 138.497 76.6036 138.657 75.6916C138.724 75.3113 138.769 74.7706 138.69 74.3912C138.606 73.9918 138.87 74.1186 138.576 74.3631L137.776 74.8286C138.095 74.6964 139.017 74.7815 139.512 74.7815C140.686 74.7815 141.862 74.7797 143.037 74.7788C145.499 74.777 147.963 74.7752 150.426 74.7743C150.75 74.7743 151.152 74.8386 151.47 74.7743C151.513 74.7652 151.605 74.7951 151.639 74.7743C151.159 75.0568 152.4 72.5429 150.816 74.1566C150.744 74.2309 150.816 74.7969 150.816 74.9056C150.816 75.4661 150.768 76.0584 151.064 76.5628C151.253 76.887 151.474 76.9441 151.663 77.1995C152.078 77.76 152.278 78.4664 152.452 79.1302C152.808 80.4832 152.753 81.7266 152.755 83.2507C152.762 87.92 152.769 92.5902 152.776 97.2595C152.778 98.6296 152.859 100.028 152.762 101.396C152.709 102.131 152.569 102.956 152.181 103.597C152.252 103.481 152.018 103.828 151.993 103.885C151.822 104.264 151.785 103.964 152.048 103.926C152.179 103.907 152.1 103.927 152.059 103.929C151.551 103.96 151.034 103.939 150.525 103.945C146.471 103.984 142.417 104.023 138.362 104.063L139.277 104.31C138.217 103.807 137.312 103.121 136.961 101.967C136.286 99.7417 132.785 100.691 133.465 102.93C134.11 105.052 136.164 107.61 138.56 107.684C139.906 107.726 141.264 107.658 142.611 107.644C145.76 107.613 148.942 107.714 152.088 107.552C156.643 107.317 156.409 101.337 156.404 97.9894C156.398 93.8933 156.392 89.7964 156.386 85.7004C156.384 84.1789 156.4 82.6566 156.38 81.1361C156.352 78.9409 155.734 75.8012 153.913 74.3695L154.444 75.65C154.444 74.2209 154.598 72.5193 153.228 71.621C152.461 71.1174 151.61 71.1528 150.738 71.1537C148.677 71.1537 146.616 71.1564 144.556 71.1573C142.56 71.1582 140.564 71.16 138.567 71.1609C137.655 71.1609 136.748 71.1455 136.013 71.803C134.943 72.7593 135.065 74.1512 135.064 75.4526L135.311 74.5388C132.784 78.0299 133.136 81.9738 133.163 86.0119C133.191 90.1677 133.222 94.3235 133.25 98.4793C133.26 99.9419 133.133 101.499 133.466 102.932C133.992 105.202 137.489 104.242 136.962 101.969L136.961 101.967Z" fill="#333333"/>
<path d="M156.302 37.4495C151.994 37.4269 147.687 37.4396 143.38 37.4368C134.136 37.4314 124.89 37.4278 115.646 37.4242C104.672 37.4196 93.6993 37.416 82.7255 37.4115C73.1358 37.4079 63.5461 37.4042 53.9564 37.3988C48.8814 37.3961 43.8074 37.3997 38.7325 37.3861C38.5775 37.3861 38.4234 37.3861 38.2684 37.3843C35.9353 37.3716 35.9326 40.994 38.2684 41.0067C42.5656 41.0294 46.8629 41.0167 51.1592 41.0194C60.3991 41.0248 69.638 41.0285 78.8779 41.0321C89.8508 41.0366 100.824 41.0402 111.797 41.0448C121.392 41.0484 130.987 41.052 140.581 41.0574C145.665 41.0602 150.75 41.0565 155.834 41.0701C155.99 41.0701 156.147 41.0701 156.303 41.0719C158.636 41.0846 158.638 37.4622 156.303 37.4495H156.302Z" fill="#333333"/>
<path d="M117.423 10.7257C121.189 10.6714 124.962 10.6107 128.728 10.6795C129.677 10.6967 130.585 9.83368 130.541 8.86831C130.497 7.87215 129.744 7.07522 128.728 7.05711C124.962 6.98828 121.189 7.04896 117.423 7.10329C116.475 7.11688 115.566 7.92649 115.61 8.9145C115.653 9.8844 116.407 10.7402 117.423 10.7257Z" fill="#333333"/>
<path d="M138.224 21.4538C138.224 20.6324 138.223 19.8083 138.222 18.9879C136.857 18.2797 134.958 17.6666 130.228 18.4635C127.87 18.8611 124.533 19.7766 122.028 21.788C120.164 23.284 118.854 26.0162 118.545 28.3853C118.13 31.5721 119.024 35.8502 120.675 37.5663L120.79 37.7293C126.574 37.7239 131.827 37.7157 138.242 37.7184C138.236 34.9455 138.23 28.292 138.224 21.4538Z" fill="#E76F51"/>
<path d="M139.137 17.424C137.489 16.5827 135.733 16.253 133.885 16.2793C131.191 16.3164 128.382 16.8127 125.845 17.7228C123.023 18.7353 120.424 20.2639 118.744 22.806C117.208 25.127 116.524 27.9335 116.646 30.6983C116.713 32.2315 116.952 33.8009 117.428 35.2625C117.664 35.9888 117.957 36.7214 118.329 37.3907C118.461 37.6279 118.608 37.8534 118.767 38.0735C118.899 38.2573 119.04 38.4357 119.183 38.6114C119.425 38.9067 118.939 38.2419 119.222 38.644C119.786 39.4419 120.806 39.8177 121.702 39.2943C122.493 38.8324 122.921 37.6198 122.353 36.8165C121.725 35.9272 121.176 35.1484 120.839 34.0309C120.425 32.6589 120.234 31.2407 120.257 29.809C120.299 27.1456 121.454 24.3138 123.715 22.7824C126.14 21.1396 129.108 20.3481 131.995 20.0276C133.109 19.9035 134.665 19.8428 135.482 19.9769C135.866 20.0393 136.246 20.1326 136.614 20.2549C136.704 20.2848 137.291 20.5311 136.841 20.3282C136.998 20.3989 137.152 20.4749 137.306 20.5528C139.38 21.6115 141.216 18.4871 139.136 17.4249L139.137 17.424Z" fill="#333333"/>
<path d="M111.369 3.62241C118.864 3.62241 126.36 3.63509 133.856 3.64052C135.307 3.64143 136.76 3.64324 138.211 3.64324L136.398 1.83203C136.398 11.4803 136.411 21.1295 136.421 30.7778C136.423 33.0907 136.425 35.4045 136.43 37.7174L138.242 35.9062C129.297 35.9035 120.352 35.9225 111.407 35.9225L113.219 37.7337C113.219 27.5203 113.199 17.307 113.187 7.09358C113.185 5.33309 113.182 3.57169 113.182 1.8112C113.182 -0.519815 109.557 -0.523438 109.557 1.8112C109.557 11.3318 109.58 20.8533 109.589 30.3739C109.592 32.8272 109.594 35.2804 109.594 37.7346C109.594 38.7136 110.424 39.5458 111.407 39.5458C120.352 39.5458 129.297 39.5259 138.242 39.5295C139.221 39.5295 140.057 38.6991 140.055 37.7183C140.036 27.2251 140.033 16.7319 140.027 6.23869C140.026 4.76981 140.024 3.30092 140.024 1.83203C140.024 0.853077 139.194 0.0208288 138.212 0.0208288C130.421 0.0208288 122.631 0.00905602 114.841 0.00271681C113.683 0.0018112 112.526 0 111.369 0C109.035 0 109.032 3.62241 111.369 3.62241Z" fill="#333333"/>
<path d="M116.369 18.6988C116.273 18.505 116.276 18.2713 116.393 18.0893C117.345 16.6041 119.408 15.5093 122.186 15.5799C124.613 15.6415 126.727 16.912 127.683 19.2557C126.235 21.0226 124.413 23.129 121.38 22.64C118.461 22.1691 117.127 20.2247 116.369 18.6988Z" fill="#2A9D8F"/>
<path d="M118.117 18.2176C118.202 18.4585 117.795 19.3243 118.066 18.8461C118.166 18.6686 117.83 19.0925 118.062 18.8579C118.22 18.6985 118.376 18.5418 118.539 18.3861C118.777 18.1588 118.374 18.4685 118.558 18.368C118.662 18.3109 118.756 18.2312 118.858 18.1687C119.072 18.0365 119.294 17.9242 119.519 17.8156C119.284 17.9288 119.449 17.8436 119.596 17.7902C119.724 17.744 119.853 17.7014 119.983 17.6625C120.255 17.5801 120.532 17.523 120.81 17.4651C121.136 17.3963 120.744 17.4624 120.949 17.4406C121.103 17.4243 121.257 17.4117 121.412 17.4026C121.723 17.3854 122.036 17.3827 122.347 17.3972C122.454 17.4026 122.56 17.4117 122.667 17.4198C123.174 17.4587 122.319 17.3365 122.811 17.4424C123.065 17.4968 123.316 17.5529 123.564 17.6308C123.662 17.6616 123.758 17.6969 123.854 17.7304C124.311 17.8916 123.554 17.5629 123.98 17.7893C124.181 17.8962 124.38 18.0021 124.572 18.1262C124.677 18.195 124.783 18.2656 124.883 18.3426C124.59 18.1162 124.868 18.3471 124.925 18.3988C125.116 18.5726 125.28 18.7655 125.456 18.953C125.59 19.0952 125.332 18.742 125.504 19.0227C125.574 19.1359 125.65 19.2446 125.718 19.3596C125.872 19.6204 126.002 19.8912 126.12 20.1701L126.404 17.9749C126.066 18.3861 125.726 18.7945 125.362 19.183C125.158 19.4013 124.947 19.6132 124.726 19.8142C124.633 19.8984 124.538 19.9799 124.444 20.0605C124.316 20.1701 124.192 20.2426 124.398 20.1004C124.149 20.2715 123.901 20.4373 123.633 20.5767C123.59 20.5985 123.21 20.7678 123.437 20.6764C123.665 20.584 123.267 20.7307 123.223 20.7443C123.073 20.7914 122.921 20.8249 122.77 20.862C122.305 20.9779 123.104 20.8656 122.611 20.8864C122.47 20.8928 122.329 20.9 122.188 20.8982C122.122 20.8982 121.658 20.8665 121.806 20.8837C122.001 20.9055 121.542 20.8339 121.5 20.8249C121.327 20.7877 121.155 20.7443 120.985 20.6945C120.85 20.6546 120.719 20.5976 120.584 20.5622C120.462 20.5152 120.48 20.526 120.64 20.593C120.567 20.5613 120.496 20.5278 120.425 20.4925C120.176 20.3703 119.935 20.2317 119.704 20.0759C119.62 20.0189 119.296 19.7372 119.611 20.0144C119.524 19.9374 119.434 19.8631 119.349 19.7843C119.168 19.6159 118.996 19.4375 118.834 19.2491C118.762 19.1649 118.529 18.8334 118.794 19.2093C118.734 19.1232 118.671 19.039 118.612 18.9521C118.358 18.5799 118.139 18.1868 117.937 17.7848C117.511 16.9362 116.243 16.6283 115.457 17.1345C114.589 17.6942 114.351 18.7049 114.806 19.6123C116.118 22.2249 118.387 24.0497 121.327 24.4446C122.952 24.6628 124.607 24.3033 125.982 23.3986C127.154 22.627 128.085 21.6118 128.969 20.536C129.545 19.8332 129.597 19.1558 129.252 18.3408C127.998 15.3759 124.947 13.7168 121.797 13.7657C120.193 13.7911 118.551 14.1497 117.156 14.9647C115.773 15.7725 113.997 17.399 114.624 19.1803C114.938 20.0723 115.877 20.7615 116.854 20.4454C117.736 20.1602 118.456 19.1749 118.12 18.2176H118.117Z" fill="#333333"/>
<path d="M79.8251 10.7257C83.5912 10.6714 87.3645 10.6107 91.1306 10.6795C92.0796 10.6967 92.9869 9.83368 92.9434 8.86831C92.899 7.87215 92.1467 7.07522 91.1306 7.05711C87.3645 6.98828 83.5912 7.04896 79.8251 7.10329C78.877 7.11688 77.9679 7.92649 78.0123 8.9145C78.0558 9.8844 78.809 10.7402 79.8251 10.7257Z" fill="#333333"/>
<path d="M100.625 21.4538C100.625 20.6324 100.624 19.8083 100.623 18.9879C99.2569 18.2797 97.358 17.6666 92.6284 18.4635C90.2708 18.8611 86.9335 19.7766 84.4282 21.788C82.5646 23.284 81.254 26.0162 80.9458 28.3853C80.5307 31.5721 81.4244 35.8502 83.0749 37.5663L83.19 37.7293C88.9747 37.7239 94.2273 37.7157 100.642 37.7184C100.636 34.9455 100.63 28.292 100.625 21.4538Z" fill="#E76F51"/>
<path d="M101.537 17.424C99.8895 16.5827 98.1329 16.253 96.2857 16.2793C93.5919 16.3164 90.782 16.8127 88.245 17.7228C85.4234 18.7353 82.8247 20.2639 81.1443 22.806C79.6088 25.127 78.9245 27.9335 79.0459 30.6983C79.113 32.2315 79.3523 33.8009 79.8282 35.2625C80.0647 35.9888 80.3575 36.7214 80.7291 37.3907C80.8615 37.6279 81.0083 37.8534 81.1669 38.0735C81.2993 38.2573 81.4407 38.4357 81.5839 38.6114C81.8259 38.9067 81.3391 38.2419 81.6228 38.644C82.1866 39.4419 83.2063 39.8177 84.1027 39.2943C84.8931 38.8324 85.321 37.6198 84.7535 36.8165C84.1254 35.9272 83.5761 35.1484 83.2389 34.0309C82.8256 32.6589 82.6344 31.2407 82.657 29.809C82.6996 27.1456 83.8544 24.3138 86.1159 22.7824C88.5405 21.1396 91.508 20.3481 94.3949 20.0276C95.5089 19.9035 97.0652 19.8428 97.8828 19.9769C98.2662 20.0393 98.6459 20.1326 99.0148 20.2549C99.1046 20.2848 99.691 20.5311 99.2414 20.3282C99.3983 20.3989 99.5523 20.4749 99.7064 20.5528C101.78 21.6115 103.617 18.4871 101.536 17.4249L101.537 17.424Z" fill="#333333"/>
<path d="M73.7689 3.62241C81.2649 3.62241 88.7608 3.63509 96.2567 3.64052C97.7079 3.64143 99.1599 3.64324 100.611 3.64324L98.7983 1.83203C98.7983 11.4803 98.811 21.1295 98.8209 30.7778C98.8236 33.0907 98.8255 35.4045 98.83 37.7174L100.643 35.9062C91.6975 35.9035 82.7523 35.9225 73.807 35.9225L75.6198 37.7337C75.6198 27.5203 75.5989 17.307 75.5872 7.09358C75.5853 5.33309 75.5826 3.57169 75.5826 1.8112C75.5826 -0.519815 71.957 -0.523438 71.957 1.8112C71.957 11.3318 71.9806 20.8533 71.9897 30.3739C71.9924 32.8272 71.9942 35.2804 71.9942 37.7346C71.9942 38.7136 72.8245 39.5458 73.807 39.5458C82.7523 39.5458 91.6975 39.5259 100.643 39.5295C101.622 39.5295 102.457 38.6991 102.456 37.7183C102.437 27.2251 102.434 16.7319 102.427 6.23869C102.427 4.76981 102.425 3.30092 102.425 1.83203C102.425 0.853077 101.595 0.0208288 100.612 0.0208288C92.8215 0.0208288 85.0319 0.00905602 77.2413 0.00271681C76.083 0.0018112 74.9255 0 73.7689 0C71.4359 0 71.4322 3.62241 73.7689 3.62241Z" fill="#333333"/>
<path d="M78.7701 18.6988C78.6741 18.505 78.6777 18.2713 78.7946 18.0893C79.7463 16.6041 81.8093 15.5093 84.5874 15.5799C87.0148 15.6415 89.1285 16.912 90.0847 19.2557C88.6363 21.0226 86.8144 23.129 83.7816 22.64C80.8621 22.1691 79.5279 20.2247 78.7701 18.6988Z" fill="#2A9D8F"/>
<path d="M80.5176 18.2176C80.6019 18.4585 80.1949 19.3243 80.4659 18.8461C80.5665 18.6686 80.2303 19.0925 80.4623 18.8579C80.62 18.6985 80.7768 18.5418 80.9391 18.3861C81.1775 18.1588 80.7741 18.4685 80.9581 18.368C81.0623 18.3109 81.1566 18.2312 81.2581 18.1687C81.472 18.0365 81.6941 17.9242 81.9198 17.8156C81.6841 17.9288 81.8491 17.8436 81.9968 17.7902C82.1246 17.744 82.2534 17.7014 82.383 17.6625C82.6558 17.5801 82.9323 17.523 83.2105 17.4651C83.5359 17.3963 83.1444 17.4624 83.3492 17.4406C83.5033 17.4243 83.6574 17.4117 83.8124 17.4026C84.1233 17.3854 84.4369 17.3827 84.7478 17.3972C84.8547 17.4026 84.9608 17.4117 85.0677 17.4198C85.5744 17.4587 84.7197 17.3365 85.2119 17.4424C85.4656 17.4968 85.7167 17.5529 85.9642 17.6308C86.0621 17.6616 86.1581 17.6969 86.2542 17.7304C86.711 17.8916 85.9542 17.5629 86.3802 17.7893C86.5814 17.8962 86.7808 18.0021 86.9721 18.1262C87.0772 18.195 87.1833 18.2656 87.283 18.3426C86.9902 18.1162 87.2685 18.3471 87.3256 18.3988C87.5168 18.5726 87.6809 18.7655 87.8567 18.953C87.99 19.0952 87.7326 18.742 87.9048 19.0227C87.9746 19.1359 88.0507 19.2446 88.1187 19.3596C88.2728 19.6204 88.4024 19.8912 88.5202 20.1701L88.8039 17.9749C88.4667 18.3861 88.1259 18.7945 87.7625 19.183C87.5585 19.4013 87.3473 19.6132 87.1262 19.8142C87.0337 19.8984 86.9385 19.9799 86.8443 20.0605C86.7165 20.1701 86.5923 20.2426 86.7981 20.1004C86.5497 20.2715 86.3013 20.4373 86.033 20.5767C85.9904 20.5985 85.6107 20.7678 85.8373 20.6764C86.0657 20.584 85.6678 20.7307 85.6234 20.7443C85.4738 20.7914 85.3215 20.8249 85.1702 20.862C84.7052 20.9779 85.5046 20.8656 85.0115 20.8864C84.8701 20.8928 84.7296 20.9 84.5882 20.8982C84.5221 20.8982 84.058 20.8665 84.2067 20.8837C84.4015 20.9055 83.9429 20.8339 83.9003 20.8249C83.7272 20.7877 83.555 20.7443 83.3855 20.6945C83.2504 20.6546 83.1199 20.5976 82.9848 20.5622C82.8625 20.5152 82.8806 20.526 83.0401 20.593C82.9676 20.5613 82.896 20.5278 82.8253 20.4925C82.576 20.3703 82.3349 20.2317 82.1047 20.0759C82.0204 20.0189 81.6968 19.7372 82.0114 20.0144C81.9243 19.9374 81.8346 19.8631 81.7494 19.7843C81.5681 19.6159 81.3959 19.4375 81.2346 19.2491C81.1621 19.1649 80.9291 18.8334 81.1947 19.2093C81.134 19.1232 81.0714 19.039 81.0125 18.9521C80.7587 18.5799 80.5394 18.1868 80.3372 17.7848C79.9112 16.9362 78.6432 16.6283 77.8573 17.1345C76.989 17.6942 76.7515 18.7049 77.2065 19.6123C78.5181 22.2249 80.7877 24.0497 83.7272 24.4446C85.3523 24.6628 87.0074 24.3033 88.3824 23.3986C89.5544 22.627 90.4853 21.6118 91.369 20.536C91.9455 19.8332 91.9972 19.1558 91.6527 18.3408C90.3983 15.3759 87.3473 13.7168 84.1976 13.7657C82.5933 13.7911 80.9518 14.1497 79.5568 14.9647C78.1737 15.7725 76.3971 17.399 77.0243 19.1803C77.3379 20.0723 78.2779 20.7615 79.2541 20.4454C80.136 20.1602 80.8566 19.1749 80.5203 18.2176H80.5176Z" fill="#333333"/>
<path d="M140.569 82.5219C143.37 82.5201 146.171 82.4748 148.972 82.473C149.92 82.473 150.828 81.6398 150.784 80.6618C150.741 79.6837 149.988 78.8506 148.972 78.8506C146.171 78.8515 143.37 78.8977 140.569 78.8995C139.621 78.8995 138.713 79.7317 138.756 80.7107C138.8 81.6896 139.553 82.5228 140.569 82.5219Z" fill="#333333"/>
<path d="M111.968 82.5219C114.768 82.5201 117.569 82.4748 120.37 82.473C121.318 82.473 122.226 81.6398 122.183 80.6618C122.139 79.6837 121.386 78.8506 120.37 78.8506C117.569 78.8515 114.768 78.8977 111.968 78.8995C111.02 78.8995 110.111 79.7317 110.155 80.7107C110.198 81.6896 110.952 82.5228 111.968 82.5219Z" fill="#333333"/>
<path d="M83.3651 82.5219C86.1659 82.5201 88.9666 82.4748 91.7674 82.473C92.7155 82.473 93.6237 81.6398 93.5802 80.6618C93.5367 79.6837 92.7835 78.8506 91.7674 78.8506C88.9666 78.8515 86.1659 78.8977 83.3651 78.8995C82.417 78.8995 81.5088 79.7317 81.5523 80.7107C81.5958 81.6896 82.349 82.5228 83.3651 82.5219Z" fill="#333333"/>
<path d="M250.553 149.827C250.821 151.492 251.179 153.142 251.624 154.769C251.875 155.683 252.923 156.335 253.854 156.034C254.79 155.732 255.389 154.786 255.12 153.807C254.675 152.179 254.316 150.53 254.049 148.864C253.981 148.444 253.568 147.987 253.216 147.782C252.827 147.554 252.254 147.458 251.819 147.599C251.381 147.741 250.957 148.013 250.736 148.431C250.495 148.887 250.472 149.319 250.553 149.827Z" fill="#333333"/>
<path d="M252.295 296.969C250.064 297.833 243.959 299.031 241.11 299.021C237.002 299.005 236.64 296.617 236.414 295.478C236.15 294.14 234.454 294.249 233.181 294.653C231.583 295.16 230.333 296.745 227.955 298.467C225.935 299.596 223.636 300.644 221.039 301.933C219.9 302.498 216.566 304.04 215.614 305.097C212.947 308.063 215.318 312.671 219.587 313.034C222.887 313.315 229.722 313.122 233.011 313.137C239.662 313.168 253.704 312.98 255.299 310.195C256.499 308.088 256.169 305.741 255.869 303.537C255.722 302.452 255.627 301.404 255.205 300.209C254.697 298.77 253.668 297.382 252.295 296.97" fill="#2A9D8F"/>
<path d="M295.192 270.599C294.374 272.846 291.257 278.225 289.373 280.362C286.656 283.441 284.619 282.14 283.612 281.56C282.43 280.878 281.395 282.224 280.861 283.448C280.192 284.984 280.561 286.968 280.293 289.889C279.813 292.152 279.089 294.571 278.351 297.372C278.026 298.6 276.992 302.122 277.162 303.534C277.64 307.493 282.672 308.744 285.757 305.772C288.141 303.475 292.496 298.209 294.673 295.746C299.076 290.765 308.18 280.083 307.132 277.049C306.335 274.76 304.35 273.462 302.492 272.236C301.577 271.632 300.725 271.015 299.547 270.544C298.128 269.978 296.405 269.839 295.191 270.6" fill="#2A9D8F"/>
<path d="M251.813 295.222C248.643 296.413 244.92 297.106 241.538 297.202C240.736 297.225 239.894 297.209 239.16 296.857C238.893 296.729 238.854 296.674 238.712 296.527C238.315 296.116 238.87 296.767 238.563 296.327C238.513 296.257 238.32 295.816 238.464 296.173C238.31 295.791 238.268 295.389 238.161 294.996C237.867 293.919 237.102 293.065 236.01 292.747C234.065 292.181 231.961 292.983 230.42 294.154C229.577 294.795 228.794 295.506 227.975 296.176C227.005 296.969 225.931 297.511 224.815 298.072C222.803 299.081 220.767 300.039 218.751 301.041C217.238 301.793 215.515 302.576 214.332 303.816C211.436 306.851 212.678 311.565 215.987 313.695C217.678 314.783 219.644 314.889 221.591 314.951C223.599 315.015 225.609 315.003 227.618 314.987C234.881 314.929 242.209 315.149 249.423 314.154C251.026 313.933 252.657 313.668 254.171 313.076C255.895 312.4 256.932 311.405 257.526 309.604C258.389 306.986 257.861 303.895 257.354 301.249C256.848 298.604 255.405 296.159 252.775 295.223C250.574 294.438 249.625 297.938 251.812 298.715C253.52 299.324 253.828 301.856 254.032 303.356C254.292 305.254 254.786 307.639 253.679 309.367C253.926 308.981 253.492 309.41 253.837 309.205C253.676 309.3 253.523 309.405 253.36 309.498C252.958 309.724 253.344 309.539 252.963 309.677C252.695 309.774 252.424 309.862 252.149 309.94C250.888 310.304 249.58 310.52 248.279 310.682C241.965 311.469 235.572 311.287 229.222 311.35C227.381 311.369 225.54 311.387 223.698 311.369C222.162 311.355 220.391 311.514 218.904 311.073C216.607 310.392 215.252 307.453 217.456 305.909C220.439 303.819 224.077 302.524 227.302 300.867C229.241 299.871 230.72 298.459 232.432 297.146C232.969 296.735 233.52 296.384 234.189 296.256C234.395 296.217 234.617 296.222 234.815 296.18L234.931 296.21C235.127 296.269 235.089 296.24 234.817 296.12C234.545 296.295 234.769 295.722 234.711 296.186C234.582 297.225 235.719 298.738 236.434 299.35C237.937 300.636 239.971 300.909 241.887 300.809C245.474 300.623 249.403 299.982 252.776 298.715C253.692 298.37 254.319 297.491 254.042 296.487C253.801 295.608 252.734 294.876 251.813 295.222Z" fill="#333333"/>
<path d="M293.444 270.118C292.943 271.449 292.006 273.093 291.197 274.473C290.319 275.968 289.41 277.503 288.298 278.839C287.759 279.486 287.101 280.232 286.257 280.471C285.799 280.6 285.358 280.442 285.164 280.347C284.47 280.01 283.842 279.585 283.035 279.567C281.748 279.538 280.705 280.361 279.984 281.349C278.719 283.084 278.628 285.077 278.6 287.145C278.586 288.261 278.572 289.347 278.314 290.437C278.026 291.658 277.694 292.869 277.364 294.079C276.849 295.966 276.302 297.852 275.858 299.757C275.442 301.539 275.052 303.395 275.709 305.166C277.107 308.931 281.599 310.105 285.039 308.458C286.647 307.689 287.851 306.269 289.031 304.974C290.407 303.467 291.739 301.919 293.068 300.371C297.759 294.91 302.786 289.591 306.643 283.485C307.484 282.154 308.309 280.731 308.765 279.215C309.28 277.502 308.882 275.976 307.849 274.524C306.426 272.525 304.249 271.147 302.19 269.872C299.819 268.403 296.855 267.608 294.276 269.036C292.234 270.166 294.061 273.296 296.106 272.164C297.819 271.215 299.883 272.676 301.274 273.597C302.732 274.563 304.443 275.548 305.232 277.187C305.292 277.311 305.452 277.865 305.419 277.609C305.365 277.2 305.363 278.096 305.403 277.755C305.432 277.522 305.303 278.141 305.269 278.252C305.212 278.441 305.072 278.821 305.048 278.878C304.626 279.894 303.833 281.174 303.155 282.21C299.71 287.474 295.401 292.103 291.316 296.863C289.115 299.428 286.985 302.215 284.475 304.492C282.825 305.988 279.257 306.121 278.956 303.34C278.817 302.067 279.401 300.464 279.735 299.2C280.235 297.311 280.763 295.429 281.266 293.54C281.838 291.39 282.195 289.377 282.225 287.145C282.235 286.409 282.195 285.637 282.318 284.908C282.368 284.616 282.449 284.325 282.57 284.055C282.642 283.897 282.869 283.635 282.916 283.456C282.973 283.378 283.034 283.303 283.099 283.232C283.262 283.081 283.128 283.045 282.697 283.124C282.666 283.169 284.272 283.874 284.323 283.891C285.111 284.154 285.949 284.193 286.764 284.056C288.803 283.714 290.306 282.154 291.507 280.584C293.686 277.735 295.676 274.447 296.94 271.082C297.285 270.167 296.558 269.097 295.674 268.854C294.657 268.576 293.79 269.2 293.444 270.12L293.444 270.118Z" fill="#333333"/>
</svg>
