<svg width="128" height="128" viewBox="0 0 128 128" fill="none" xmlns="http://www.w3.org/2000/svg">
<mask id="mask0_285_167" style="mask-type:luminance" maskUnits="userSpaceOnUse" x="0" y="0" width="129" height="129">
<path d="M64.0041 128.471C99.3526 128.471 128.008 99.7119 128.008 64.2356C128.008 28.7593 99.3526 0 64.0041 0C28.6556 0 0 28.7593 0 64.2356C0 99.7119 28.6556 128.471 64.0041 128.471Z" fill="white"/>
</mask>
<g mask="url(#mask0_285_167)">
<path d="M64.0041 128.471C99.3526 128.471 128.008 99.7119 128.008 64.2356C128.008 28.7593 99.3526 0 64.0041 0C28.6556 0 0 28.7593 0 64.2356C0 99.7119 28.6556 128.471 64.0041 128.471Z" fill="#2A9D8F"/>
</g>
<mask id="mask1_285_167" style="mask-type:luminance" maskUnits="userSpaceOnUse" x="0" y="0" width="129" height="129">
<path d="M64.0041 128.471C99.3526 128.471 128.008 99.7119 128.008 64.2356C128.008 28.7593 99.3526 0 64.0041 0C28.6556 0 0 28.7593 0 64.2356C0 99.7119 28.6556 128.471 64.0041 128.471Z" fill="white"/>
</mask>
<g mask="url(#mask1_285_167)">
<path d="M21.3296 78.1172L20.5391 119.53L64.3702 145.838L65.1451 104.637L21.3296 78.1172Z" fill="#EB605E"/>
<path d="M109.271 79.7969L65.1499 104.635L64.375 145.836L108.472 121.893L109.271 79.7969Z" fill="#E34337"/>
<path d="M37.7422 129.853L38.9397 93.3965L47.4711 98.7381L46.1327 134.896L37.7422 129.853Z" fill="#FCF1FD"/>
<path d="M91.3034 131.21L91.3425 94.0703L83.5625 98.5793L83.586 135.405L91.3034 131.21Z" fill="#DCC1E1"/>
<path opacity="0.4" d="M21.1487 87.7393L21.2426 82.5312L64.8859 109.396L109.187 83.7331L109.007 93.6151L65.0033 112.397L21.0312 93.8429L21.1487 87.7393Z" fill="#C47439"/>
<path d="M17.2734 68.8016L65.1668 94.6455L111.636 70.6083L64.9242 45L17.2734 68.8016Z" fill="#FBD9A3"/>
<path d="M17 83.1681L17.2739 68.8008L65.1673 94.6447L64.8855 109.397L17 83.1681Z" fill="#FAC46B"/>
<path d="M111.633 70.6074L111.352 85.5718L64.8828 109.397L65.1646 94.6446L111.633 70.6074Z" fill="#EC9A54"/>
<path d="M45.7976 84.1892L45.5158 99.1064L36.9766 94.1026L37.2505 79.5781L45.7976 84.1892Z" fill="#FCF1FD"/>
<path d="M37.25 79.5795L83.7267 55.3066L90.2387 58.433L45.7971 84.1906L37.25 79.5795Z" fill="#FAFAFA"/>
<path d="M38.3516 58.276L84.5465 84.6227L92.2561 80.6322L45.7481 54.5762L38.3516 58.276Z" fill="#FCF1FD"/>
<path d="M85.4861 98.8394C85.3374 98.5409 84.5469 84.6214 84.5469 84.6214L92.2643 80.6309L92.64 95.171L85.4861 98.8394Z" fill="#DCC1E1"/>
<path d="M39.9321 60.3487C39.9321 60.3487 37.1614 70.7491 56.6036 67.5285L60.9476 72.3281C60.9476 72.3281 30.6102 77.4497 31.6512 65.981C32.6922 54.4337 39.9321 60.3487 39.9321 60.3487Z" fill="#FCF1FD"/>
<path d="M62.5397 73.5995C62.5397 73.5995 61.7335 72.9161 60.3638 71.8949C54.7831 67.7238 39.7866 57.9753 31.5213 66.4905C31.5213 66.4905 29.3532 50.7092 43.2305 51.8718C57.0999 53.0343 65.3965 64.668 65.3965 64.668L62.5397 73.5995Z" fill="#FAFAFA"/>
<path d="M98.0078 66.2166V66.2637C97.7965 77.1433 68.4844 71.0319 68.4844 71.0319L73.0006 66.4051C81.6807 68.1883 85.9777 67.0492 88.0753 65.2504C89.0224 64.4413 89.5233 63.4986 89.7738 62.6267C90.2043 61.142 89.9225 59.8773 89.9225 59.8773C89.9225 59.8773 97.3816 54.2372 97.9843 65.816C98.0078 65.9495 98.0156 66.083 98.0078 66.2166Z" fill="#FCF1FD"/>
<path d="M66.8484 72.2421C66.8484 72.2421 67.6781 71.5901 69.0869 70.616C74.8241 66.6648 90.1807 57.4977 98.1094 66.3192C98.1094 66.3192 100.872 50.6322 86.9638 51.2606C73.0552 51.8969 64.3281 63.2006 64.3281 63.2006L66.8484 72.2421Z" fill="#FAFAFA"/>
<path d="M61.4483 60.3555L67.749 62.3586L70.6215 71.4314L64.9235 73.8194L59.8438 72.107L61.4483 60.3555Z" fill="#FCF1FD"/>
<path d="M30.88 22.336H45.152V24.144H30.88V22.336ZM34.928 28.112H42.112V29.712H34.928V28.112ZM41.472 25.408H43.36V33.36C43.36 33.8293 43.3013 34.2027 43.184 34.48C43.0773 34.7573 42.8587 34.9707 42.528 35.12C42.208 35.2693 41.8133 35.36 41.344 35.392C40.8747 35.424 40.3147 35.44 39.664 35.44C39.632 35.1733 39.5573 34.8587 39.44 34.496C39.3333 34.144 39.216 33.84 39.088 33.584C39.3653 33.5947 39.6427 33.6053 39.92 33.616C40.1973 33.6267 40.4427 33.632 40.656 33.632C40.88 33.632 41.0347 33.632 41.12 33.632C41.2587 33.6213 41.3493 33.5947 41.392 33.552C41.4453 33.5093 41.472 33.4347 41.472 33.328V25.408ZM35.84 20.4L37.824 20.848C37.4507 22.0213 36.9867 23.184 36.432 24.336C35.8773 25.4773 35.216 26.5493 34.448 27.552C33.68 28.544 32.7893 29.3973 31.776 30.112C31.68 29.9627 31.552 29.7973 31.392 29.616C31.2427 29.424 31.088 29.2427 30.928 29.072C30.7787 28.8907 30.64 28.7413 30.512 28.624C31.1947 28.1653 31.8187 27.6213 32.384 26.992C32.96 26.3627 33.4667 25.6853 33.904 24.96C34.352 24.224 34.736 23.472 35.056 22.704C35.376 21.9253 35.6373 21.1573 35.84 20.4ZM34.896 30.752H42.112V32.352H34.896V30.752ZM34.832 25.408H41.904V27.088H34.832V25.408ZM33.776 25.408H35.712V29.68C35.712 30.16 35.68 30.672 35.616 31.216C35.5627 31.7493 35.4613 32.2827 35.312 32.816C35.1733 33.3387 34.9707 33.8347 34.704 34.304C34.4373 34.7733 34.0853 35.1893 33.648 35.552C33.5733 35.424 33.4507 35.2587 33.28 35.056C33.1093 34.864 32.928 34.672 32.736 34.48C32.5547 34.2987 32.4 34.1653 32.272 34.08C32.7307 33.6747 33.0667 33.2267 33.28 32.736C33.4933 32.2453 33.6267 31.7333 33.68 31.2C33.744 30.6667 33.776 30.1493 33.776 29.648V25.408ZM48.144 30.592H63.104V32.16H48.144V30.592ZM58.24 29.776L59.12 28.944C59.408 29.1253 59.712 29.3387 60.032 29.584C60.352 29.8187 60.608 30.032 60.8 30.224L59.872 31.152C59.7013 30.9493 59.456 30.72 59.136 30.464C58.8267 30.208 58.528 29.9787 58.24 29.776ZM53.888 25.488H62.88V26.72H53.888V25.488ZM59.248 24.448H61.072V27.728C61.072 28.0907 61.024 28.3733 60.928 28.576C60.8427 28.7787 60.6667 28.9333 60.4 29.04C60.1333 29.1467 59.8187 29.2107 59.456 29.232C59.104 29.2427 58.6933 29.248 58.224 29.248C58.1813 29.024 58.112 28.784 58.016 28.528C57.9307 28.272 57.8347 28.0427 57.728 27.84C57.9947 27.8507 58.256 27.8613 58.512 27.872C58.768 27.872 58.9387 27.872 59.024 27.872C59.1093 27.8613 59.168 27.8453 59.2 27.824C59.232 27.792 59.248 27.7387 59.248 27.664V24.448ZM48.224 25.152H52.704V26.656H48.224V25.152ZM51.664 20.448H53.392V29.616H51.664V20.448ZM48.864 20.816H50.464V22.832H52.656V24.288H48.864V20.816ZM54.832 27.216L56 26.32C56.288 26.5013 56.5867 26.72 56.896 26.976C57.216 27.232 57.4667 27.4667 57.648 27.68L56.4 28.656C56.2507 28.432 56.0213 28.1867 55.712 27.92C55.4133 27.6427 55.12 27.408 54.832 27.216ZM56.336 22.256L57.52 21.84C57.8827 22.096 58.256 22.4107 58.64 22.784C59.024 23.1467 59.3227 23.4773 59.536 23.776L58.272 24.208C58.0907 23.92 57.8133 23.5947 57.44 23.232C57.0773 22.8587 56.7093 22.5333 56.336 22.256ZM60.912 21.216H61.216L61.52 21.152L62.512 21.664C62.16 22.304 61.712 22.8533 61.168 23.312C60.6347 23.76 60.0213 24.144 59.328 24.464C58.6453 24.7733 57.904 25.024 57.104 25.216C56.3147 25.408 55.4827 25.5627 54.608 25.68C54.5333 25.4987 54.4267 25.3067 54.288 25.104C54.1493 24.9013 54.016 24.7307 53.888 24.592C54.656 24.5067 55.3973 24.384 56.112 24.224C56.8373 24.064 57.5093 23.8613 58.128 23.616C58.7573 23.36 59.3067 23.0507 59.776 22.688C60.256 22.3253 60.6347 21.904 60.912 21.424V21.216ZM58.112 20.336L59.68 20.672C59.0827 21.1947 58.3893 21.6373 57.6 22C56.8107 22.3627 55.8933 22.6933 54.848 22.992C54.752 22.8213 54.608 22.6293 54.416 22.416C54.224 22.2027 54.0533 22.0373 53.904 21.92C54.8533 21.728 55.6853 21.4987 56.4 21.232C57.1253 20.9547 57.696 20.656 58.112 20.336ZM57.728 21.216H61.376V22.256H56.304L57.728 21.216ZM49.12 25.808H50.816V26.624C50.816 26.8587 50.7787 27.1787 50.704 27.584C50.64 27.9787 50.5173 28.384 50.336 28.8C50.1547 29.2053 49.8827 29.5573 49.52 29.856C49.4133 29.7707 49.2693 29.68 49.088 29.584C48.9173 29.4773 48.7413 29.376 48.56 29.28C48.3787 29.184 48.2133 29.1093 48.064 29.056C48.3733 28.8107 48.6027 28.528 48.752 28.208C48.9013 27.888 48.9973 27.5787 49.04 27.28C49.0933 26.9813 49.12 26.7413 49.12 26.56V25.808ZM54.608 29.104H56.512V30.224C56.512 30.5867 56.4587 30.9707 56.352 31.376C56.2453 31.7813 56.0427 32.1867 55.744 32.592C55.456 32.9867 55.04 33.3707 54.496 33.744C53.952 34.1173 53.2373 34.4587 52.352 34.768C51.4773 35.0773 50.4 35.3333 49.12 35.536C49.0027 35.312 48.8373 35.0453 48.624 34.736C48.4213 34.4373 48.2293 34.1867 48.048 33.984C49.1893 33.8027 50.1493 33.6 50.928 33.376C51.7067 33.1413 52.336 32.8907 52.816 32.624C53.3067 32.3467 53.68 32.0693 53.936 31.792C54.192 31.504 54.368 31.2213 54.464 30.944C54.56 30.6667 54.608 30.4053 54.608 30.16V29.104ZM56.016 32.976L56.832 31.68C57.312 31.8293 57.84 32.0053 58.416 32.208C58.992 32.4 59.5733 32.5973 60.16 32.8C60.7467 33.0027 61.296 33.2053 61.808 33.408C62.3307 33.6107 62.7787 33.792 63.152 33.952L62.288 35.44C61.936 35.28 61.504 35.0933 60.992 34.88C60.4907 34.6667 59.952 34.4427 59.376 34.208C58.8 33.984 58.2187 33.7653 57.632 33.552C57.056 33.3387 56.5173 33.1467 56.016 32.976ZM54.384 23.152C54.736 23.1307 55.104 23.1093 55.488 23.088C55.8827 23.056 56.3147 23.024 56.784 22.992L56.816 23.888C56.4107 23.92 56.0213 23.9573 55.648 24C55.2747 24.0427 54.9067 24.0853 54.544 24.128L54.384 23.152ZM76.816 23.44H80.752V25.056H76.368L76.816 23.44ZM76.816 20.416L78.432 20.704C78.272 21.6427 78.0693 22.5653 77.824 23.472C77.5893 24.3787 77.296 25.2267 76.944 26.016C76.6027 26.7947 76.192 27.4773 75.712 28.064C75.6587 27.936 75.5787 27.7707 75.472 27.568C75.376 27.3547 75.2693 27.1413 75.152 26.928C75.0347 26.7147 74.9227 26.544 74.816 26.416C75.36 25.7013 75.7867 24.816 76.096 23.76C76.416 22.704 76.656 21.5893 76.816 20.416ZM71.888 20.416H73.344V24.96H71.888V20.416ZM69.84 21.616H71.12V23.792H74.128V21.648H75.456V25.264H69.84V21.616ZM69.824 26H75.136V27.36H69.824V26ZM77.104 25.28C77.2533 26.5493 77.4773 27.7493 77.776 28.88C78.0853 30.0107 78.496 31.0133 79.008 31.888C79.5307 32.752 80.1867 33.4293 80.976 33.92C80.8587 34.0267 80.72 34.1653 80.56 34.336C80.4107 34.5067 80.2667 34.6827 80.128 34.864C80 35.0453 79.8933 35.216 79.808 35.376C78.976 34.7467 78.2987 33.936 77.776 32.944C77.2533 31.952 76.8427 30.8213 76.544 29.552C76.2453 28.2827 76.0053 26.9173 75.824 25.456L77.104 25.28ZM78.592 24.464L80.256 24.576C80.0853 26.3253 79.8133 27.8933 79.44 29.28C79.0667 30.656 78.5387 31.856 77.856 32.88C77.184 33.904 76.3093 34.7733 75.232 35.488C75.1573 35.3813 75.0453 35.248 74.896 35.088C74.7467 34.928 74.592 34.768 74.432 34.608C74.272 34.448 74.128 34.32 74 34.224C75.0453 33.6267 75.8773 32.8693 76.496 31.952C77.1253 31.024 77.6 29.936 77.92 28.688C78.2507 27.44 78.4747 26.032 78.592 24.464ZM69.952 30.368H75.408V31.712H69.952V30.368ZM71.824 28.56H73.504V33.488H71.824V28.56ZM68.16 20.4L69.872 21.04C69.4453 21.7333 68.9173 22.432 68.288 23.136C67.6693 23.84 67.056 24.4373 66.448 24.928C66.384 24.8 66.2933 24.6453 66.176 24.464C66.0587 24.272 65.9413 24.0853 65.824 23.904C65.7067 23.7227 65.5947 23.5733 65.488 23.456C65.8293 23.1893 66.1653 22.8853 66.496 22.544C66.8373 22.192 67.152 21.8293 67.44 21.456C67.7387 21.0827 67.9787 20.7307 68.16 20.4ZM68.416 23.776L70.064 24.368C69.7653 25.008 69.4133 25.664 69.008 26.336C68.6027 26.9973 68.176 27.632 67.728 28.24C67.28 28.8373 66.8373 29.36 66.4 29.808C66.3467 29.6693 66.256 29.488 66.128 29.264C66.0107 29.04 65.8827 28.816 65.744 28.592C65.6053 28.368 65.4827 28.192 65.376 28.064C65.9413 27.5307 66.496 26.88 67.04 26.112C67.5947 25.344 68.0533 24.5653 68.416 23.776ZM67.312 27.264L69.056 25.536V25.552V35.44H67.312V27.264ZM74.752 27.584L75.536 28.688C75.12 28.8373 74.608 28.976 74 29.104C73.392 29.232 72.7573 29.344 72.096 29.44C71.4347 29.5253 70.8 29.5893 70.192 29.632C70.128 29.4827 70.0267 29.2907 69.888 29.056C69.76 28.8107 69.632 28.608 69.504 28.448C70.08 28.416 70.6987 28.352 71.36 28.256C72.0213 28.16 72.6507 28.0533 73.248 27.936C73.856 27.8187 74.3573 27.7013 74.752 27.584ZM69.504 33.04C70.272 33.008 71.1947 32.9547 72.272 32.88C73.3493 32.7947 74.4533 32.7093 75.584 32.624V33.936C74.5493 34.064 73.52 34.1813 72.496 34.288C71.4827 34.4053 70.5653 34.5067 69.744 34.592L69.504 33.04ZM87.584 27.76H94.048V29.344H87.584V27.76ZM87.088 33.296H94.544V34.96H87.088V33.296ZM86.016 30.208H95.6V35.392H93.696V31.84H87.856V35.44H86.016V30.208ZM90.512 24.128L92.192 24.864C91.328 26.048 90.2187 27.072 88.864 27.936C87.5093 28.8 86.032 29.5147 84.432 30.08C84.3467 29.9307 84.2347 29.76 84.096 29.568C83.9573 29.3653 83.808 29.168 83.648 28.976C83.4987 28.784 83.36 28.6293 83.232 28.512C84.2453 28.2027 85.216 27.824 86.144 27.376C87.072 26.928 87.9147 26.432 88.672 25.888C89.4293 25.3333 90.0427 24.7467 90.512 24.128ZM91.312 24.944C91.6747 25.2213 92.128 25.5147 92.672 25.824C93.2267 26.1227 93.8347 26.4213 94.496 26.72C95.1573 27.008 95.8347 27.28 96.528 27.536C97.2213 27.792 97.8987 28.0053 98.56 28.176C98.4107 28.304 98.2507 28.4693 98.08 28.672C97.92 28.8747 97.76 29.0773 97.6 29.28C97.4507 29.4827 97.3227 29.6693 97.216 29.84C96.576 29.6267 95.92 29.3653 95.248 29.056C94.576 28.736 93.92 28.4 93.28 28.048C92.6507 27.6853 92.064 27.3227 91.52 26.96C90.9867 26.5973 90.5333 26.2613 90.16 25.952L91.312 24.944ZM85.68 21.552H90.704V23.232H85.68V21.552ZM92.112 21.552H98.112V23.232H92.112V21.552ZM85.696 20.272L87.568 20.848C87.3333 21.4133 87.0507 21.9787 86.72 22.544C86.3893 23.1093 86.0373 23.6373 85.664 24.128C85.2907 24.6187 84.9067 25.0507 84.512 25.424C84.4373 25.2853 84.32 25.1147 84.16 24.912C84.0107 24.6987 83.8507 24.4853 83.68 24.272C83.52 24.0587 83.376 23.8933 83.248 23.776C83.7387 23.3493 84.2027 22.8267 84.64 22.208C85.0773 21.5787 85.4293 20.9333 85.696 20.272ZM92.208 20.272L94.144 20.8C93.888 21.5573 93.5413 22.288 93.104 22.992C92.6773 23.696 92.224 24.288 91.744 24.768C91.6373 24.6293 91.4933 24.4747 91.312 24.304C91.1307 24.1227 90.944 23.9467 90.752 23.776C90.56 23.5947 90.3947 23.4507 90.256 23.344C90.6827 22.9707 91.0667 22.512 91.408 21.968C91.7493 21.424 92.016 20.8587 92.208 20.272ZM86.224 24.096L87.568 23.024C87.856 23.2693 88.16 23.5467 88.48 23.856C88.8 24.1547 89.0507 24.4267 89.232 24.672L87.824 25.856C87.664 25.6107 87.4293 25.3227 87.12 24.992C86.8107 24.6613 86.512 24.3627 86.224 24.096ZM93.296 23.984L94.576 22.912C94.864 23.1467 95.168 23.4187 95.488 23.728C95.8187 24.0267 96.0693 24.2987 96.24 24.544L94.88 25.728C94.72 25.4827 94.4853 25.1947 94.176 24.864C93.8773 24.5333 93.584 24.24 93.296 23.984Z" fill="white"/>
</g>
<g clip-path="url(#clip0_285_167)">
<path d="M20.292 38.1057L22.766 34L24.8943 38.292L29 40.766L24.708 42.8943L22.234 47L20.1057 42.708L16 40.234L20.292 38.1057Z" fill="#FFDA71"/>
</g>
<g clip-path="url(#clip1_285_167)">
<path d="M111.632 47.4741L113.725 44L115.526 47.6317L119 49.7251L115.368 51.5259L113.275 55L111.474 51.3683L108 49.2749L111.632 47.4741Z" fill="#FFDA71"/>
</g>
<defs>
<clipPath id="clip0_285_167">
<rect width="13" height="13" fill="white" transform="translate(16 34)"/>
</clipPath>
<clipPath id="clip1_285_167">
<rect width="11" height="11" fill="white" transform="translate(108 44)"/>
</clipPath>
</defs>
</svg>
